<?xml version="1.0" standalone="no"?>
<!DOCTYPE svg PUBLIC "-//W3C//DTD SVG 20010904//EN"
 "http://www.w3.org/TR/2001/REC-SVG-20010904/DTD/svg10.dtd">
<svg version="1.0" xmlns="http://www.w3.org/2000/svg"
 width="2500.000000pt" height="1233.000000pt" viewBox="0 0 2500.000000 1233.000000"
 preserveAspectRatio="xMidYMid meet">

<g transform="translate(0.000000,1233.000000) scale(0.100000,-0.100000)"
fill="#000000" stroke="none">
<path d="M23570 9315 c-196 -15 -406 -39 -585 -66 -71 -11 -137 -20 -145 -20
-26 -1 -154 -19 -180 -26 -22 -4 -22 -6 -7 -12 10 -4 -8 -7 -40 -7 -91 1 -173
-13 -167 -28 3 -8 17 -11 37 -9 18 2 97 6 177 9 80 4 151 11 158 17 9 7 16 7
24 -1 7 -7 19 -12 28 -12 13 0 13 1 0 10 -13 8 -12 10 3 10 9 0 17 -5 17 -10
0 -6 14 -4 35 4 19 8 35 12 35 9 0 -3 6 -1 13 4 6 6 39 11 72 12 88 3 115 7
128 20 13 13 54 15 62 2 6 -10 45 -11 45 -1 0 3 16 7 37 8 20 2 40 5 44 8 4 2
10 0 13 -5 9 -15 165 -9 170 6 3 7 12 10 21 7 8 -4 21 -2 28 4 7 6 88 9 207 7
118 -1 200 1 207 7 7 6 23 7 35 4 13 -4 43 -9 68 -13 24 -3 50 -11 57 -17 32
-28 41 -34 45 -30 3 2 17 -2 31 -9 15 -8 24 -16 22 -19 -3 -3 8 -11 25 -18 22
-9 30 -19 30 -37 0 -22 3 -24 28 -19 38 8 56 -7 56 -48 0 -31 3 -36 23 -36 16
0 23 -6 23 -19 0 -11 4 -21 10 -23 5 -1 10 -49 11 -105 1 -57 6 -103 10 -103
5 0 9 -9 9 -21 0 -14 -5 -19 -15 -16 -16 7 -24 -2 -30 -35 -3 -13 -9 -24 -15
-26 -6 -2 -8 -8 -4 -13 3 -5 0 -9 -6 -9 -6 0 -9 -4 -6 -8 8 -13 -67 -89 -82
-84 -15 5 -16 -13 -1 -37 9 -13 9 -23 1 -37 -11 -18 -11 -18 -12 4 0 19 -2 21
-20 10 -14 -9 -16 -14 -7 -20 9 -6 9 -8 -1 -8 -16 0 -36 -19 -45 -40 -5 -13
-6 -13 -6 0 -1 9 4 21 10 27 8 8 8 13 0 17 -6 4 -11 1 -11 -7 0 -16 -41 -57
-58 -57 -7 0 -12 -5 -12 -11 0 -5 -4 -8 -9 -5 -17 11 -41 -6 -41 -28 0 -22
-10 -26 -67 -30 -24 -1 -31 -12 -12 -18 8 -3 5 -11 -7 -22 -16 -17 -19 -17
-28 -3 -9 13 -17 12 -70 -15 -34 -17 -74 -41 -89 -54 -16 -13 -41 -27 -55 -30
-15 -4 -36 -13 -47 -20 -11 -8 -28 -14 -38 -14 -18 0 -153 -47 -262 -90 -44
-18 -51 -19 -61 -5 -12 16 -39 21 -29 5 3 -5 2 -10 -4 -10 -6 0 -8 -8 -4 -17
3 -10 3 -15 -2 -11 -4 4 -14 3 -21 -3 -7 -5 -36 -12 -64 -14 -28 -2 -54 -6
-57 -9 -4 -3 -18 -6 -33 -6 -14 0 -31 -5 -36 -10 -6 -6 -20 -12 -32 -15 -11
-2 -36 -14 -54 -27 -18 -13 -35 -24 -37 -25 -9 -6 10 -15 48 -24 33 -7 64 -4
150 16 273 63 492 141 734 262 341 171 560 377 613 578 65 243 -100 467 -401
545 -104 28 -355 34 -585 15z m-30 -54 c0 -9 -109 -3 -119 5 -2 2 23 4 57 4
34 0 62 -4 62 -9z m-943 -87 c-3 -3 -12 -4 -19 -1 -8 3 -5 6 6 6 11 1 17 -2
13 -5z m1893 -145 c0 -6 -4 -7 -10 -4 -5 3 -10 11 -10 16 0 6 5 7 10 4 6 -3
10 -11 10 -16z m0 -29 c0 -5 -4 -10 -10 -10 -5 0 -10 5 -10 10 0 6 5 10 10 10
6 0 10 -4 10 -10z m17 -142 c-3 -7 -5 -2 -5 12 0 14 2 19 5 13 2 -7 2 -19 0
-25z m-24 -163 c-3 -9 -8 -14 -10 -11 -3 3 -2 9 2 15 9 16 15 13 8 -4z m-93
-149 c0 -11 -19 -15 -25 -6 -3 5 1 10 9 10 9 0 16 -2 16 -4z"/>
<path d="M18725 9314 c-40 -7 -139 -40 -184 -63 -48 -25 -134 -118 -127 -136
3 -8 0 -14 -7 -12 -7 1 -22 -28 -36 -68 -72 -211 9 -449 221 -655 105 -101
317 -248 338 -235 6 4 9 1 8 -5 -4 -14 200 -119 302 -156 41 -15 89 -32 105
-39 62 -25 136 -43 157 -38 17 3 19 2 9 -5 -15 -11 146 -39 170 -29 8 3 -2 6
-21 7 l-35 2 30 13 c17 8 23 14 15 15 -8 0 -26 3 -39 7 -16 4 -22 3 -17 -5 4
-8 -3 -8 -26 -1 -18 5 -35 10 -38 10 -3 1 11 4 30 8 34 6 33 7 -40 31 -41 13
-77 25 -80 25 -3 1 -31 9 -64 19 -42 12 -60 23 -64 38 -4 18 -10 20 -49 14
-37 -5 -48 -2 -61 13 -10 11 -32 22 -50 25 -18 2 -45 13 -60 22 -15 10 -30 19
-33 19 -3 0 -21 7 -40 17 -19 9 -52 20 -73 25 -42 9 -62 43 -25 43 10 0 19 5
19 10 0 6 -13 10 -30 10 -16 0 -30 -4 -30 -10 0 -5 -15 -10 -32 -10 -29 1 -31
2 -17 13 14 10 15 16 4 30 -7 9 -17 17 -23 17 -5 0 -12 7 -16 15 -7 18 -46 20
-46 3 0 -9 -3 -10 -8 -2 -4 6 -14 14 -22 18 -8 3 -5 4 7 2 34 -6 37 9 5 30
-15 10 -40 31 -56 46 -16 16 -31 27 -33 24 -7 -7 -54 36 -68 64 -7 14 -40 53
-72 85 -43 44 -58 66 -55 83 2 12 8 22 13 22 5 0 9 9 9 20 0 13 -7 20 -19 20
-14 0 -22 10 -27 33 -16 70 -17 86 -14 190 1 15 8 39 15 54 10 19 11 29 4 34
-8 5 -8 9 0 13 6 4 11 3 11 -2 0 -6 11 -9 24 -8 30 1 32 36 2 36 -11 0 -16 3
-13 6 3 4 2 15 -4 25 -7 15 -6 19 5 19 7 0 16 7 20 15 7 18 36 20 36 3 0 -7 8
-1 17 14 18 29 80 68 109 68 11 0 32 7 48 15 15 8 31 13 35 11 3 -2 40 0 81 4
55 6 78 6 85 -3 12 -14 24 -17 85 -23 82 -8 110 -15 107 -27 -1 -6 9 -12 23
-12 34 -2 129 -32 146 -46 8 -6 36 -12 64 -12 27 0 45 -4 38 -8 -14 -9 -4 -14
52 -23 19 -4 53 -15 75 -25 36 -18 180 -36 154 -21 -6 4 13 5 43 3 70 -6 83
-11 31 -12 -24 -1 -43 -5 -43 -10 0 -16 13 -20 73 -23 31 -2 57 -6 57 -10 0
-4 68 -6 150 -4 87 3 150 0 150 -5 0 -5 -19 -7 -42 -4 -40 5 -39 4 12 -10 38
-11 73 -14 113 -10 31 4 57 3 57 -2 0 -13 147 -10 161 5 7 6 26 12 43 12 16 0
27 2 24 5 -3 3 -61 8 -129 10 -68 3 -133 8 -144 11 -16 4 -17 3 -5 -5 25 -18
-20 -11 -140 20 -19 5 -55 11 -80 14 -25 2 -65 9 -90 16 -25 6 -61 8 -80 5
-21 -3 -30 -2 -21 3 9 6 3 10 -20 14 -71 10 -294 61 -299 67 -12 16 -53 22
-62 9 -8 -11 -9 -11 -5 1 3 11 -33 28 -147 69 -83 29 -191 64 -241 77 -87 24
-229 37 -290 28z m492 -130 c-3 -3 -12 -4 -19 -1 -8 3 -5 6 6 6 11 1 17 -2 13
-5z m464 -122 c-7 -2 -18 1 -23 6 -8 8 -4 9 13 5 13 -4 18 -8 10 -11z m186
-28 c-3 -3 -12 -4 -19 -1 -8 3 -5 6 6 6 11 1 17 -2 13 -5z m453 -64 c17 -6 5
-7 -35 -4 -33 3 -61 7 -64 10 -8 7 73 2 99 -6z m-147 -7 c-13 -2 -33 -2 -45 0
-13 2 -3 4 22 4 25 0 35 -2 23 -4z m-1483 -584 c0 -11 -3 -11 -24 -3 -23 9
-20 23 4 17 11 -3 20 -9 20 -14z m20 -29 c0 -5 -2 -10 -4 -10 -3 0 -8 5 -11
10 -3 6 -1 10 4 10 6 0 11 -4 11 -10z m40 -70 c0 -5 -2 -10 -4 -10 -3 0 -8 5
-11 10 -3 6 -1 10 4 10 6 0 11 -4 11 -10z m578 -262 c-6 -18 -25 -20 -31 -3
-5 10 0 15 14 15 12 0 19 -5 17 -12z m249 -124 c-3 -3 -12 -4 -19 -1 -8 3 -5
6 6 6 11 1 17 -2 13 -5z"/>
<path d="M24015 9232 c-14 -14 -1 -18 43 -15 26 3 55 4 66 4 10 0 16 3 13 6
-8 7 -115 12 -122 5z"/>
<path d="M23185 9190 c-4 -6 5 -10 20 -10 15 0 24 4 20 10 -3 6 -12 10 -20 10
-8 0 -17 -4 -20 -10z"/>
<path d="M22360 9154 c-8 -1 -37 -6 -64 -9 -35 -5 -45 -9 -35 -16 8 -5 25 -8
39 -8 23 0 24 1 5 10 -16 7 -12 8 14 4 18 -3 39 -5 45 -6 6 -1 0 -4 -14 -8
l-25 -7 28 -6 c15 -3 25 -3 22 0 -2 3 0 11 6 19 9 10 8 13 -2 14 -8 1 2 5 21
9 34 7 34 7 5 8 -16 0 -37 -2 -45 -4z"/>
<path d="M22159 9126 c-2 -2 -42 -9 -89 -15 -113 -15 -132 -20 -125 -31 3 -6
21 -10 38 -9 27 0 29 2 12 9 l-20 9 20 1 c65 3 136 14 180 25 42 11 45 14 19
14 -17 1 -33 -1 -35 -3z"/>
<path d="M22428 9113 c7 -3 16 -2 19 1 4 3 -2 6 -13 5 -11 0 -14 -3 -6 -6z"/>
<path d="M22203 9103 c9 -2 23 -2 30 0 6 3 -1 5 -18 5 -16 0 -22 -2 -12 -5z"/>
<path d="M22298 9103 c7 -3 16 -2 19 1 4 3 -2 6 -13 5 -11 0 -14 -3 -6 -6z"/>
<path d="M21868 9083 c-10 -2 -18 -8 -18 -13 0 -4 -19 -6 -42 -4 -30 2 -23 -1
22 -10 81 -17 57 -20 -47 -5 -55 8 -94 8 -133 0 -30 -6 -81 -13 -112 -15 -31
-3 -96 -8 -143 -12 -47 -4 -88 -11 -91 -15 -2 -5 -17 -6 -32 -3 -15 3 -45 1
-67 -4 -30 -8 -34 -10 -15 -12 l25 -1 -24 -10 c-37 -15 -23 -17 59 -8 42 4 79
3 85 -2 18 -17 27 -9 21 19 -4 17 -3 22 2 14 7 -11 25 -12 78 -6 38 4 72 9 77
10 4 1 24 3 45 4 l37 2 -30 8 c-18 5 13 7 78 5 62 -2 107 0 107 6 0 5 11 9 25
9 14 0 25 -4 25 -9 0 -12 93 0 102 13 4 6 -2 14 -15 18 -16 4 -17 6 -4 7 9 1
17 6 17 11 0 10 -3 11 -32 3z m-119 -37 c-2 -2 -31 -6 -64 -9 -37 -3 -51 -2
-35 3 25 8 107 13 99 6z m-469 -56 c0 -5 -12 -10 -27 -10 -22 0 -25 2 -13 10
20 13 40 13 40 0z"/>
<path d="M21107 8994 c-2 -3 -168 -10 -302 -14 -36 -1 -45 -4 -30 -10 18 -7
16 -8 -10 -12 -35 -6 123 -14 209 -11 38 2 62 8 70 17 7 10 32 16 66 18 41 2
48 5 28 9 -15 3 -29 5 -31 3z m-102 -25 c27 -1 26 -2 -10 -10 -42 -8 -104 -10
-72 -2 9 2 14 9 11 15 -5 8 1 9 17 5 13 -4 38 -7 54 -8z m-132 -6 c-13 -2 -33
-2 -45 0 -13 2 -3 4 22 4 25 0 35 -2 23 -4z"/>
<path d="M20583 8969 c-4 -4 -42 -10 -83 -12 -41 -2 -7 -2 75 0 83 3 154 9
160 14 5 6 -21 9 -67 8 -42 -1 -80 -5 -85 -10z"/>
<path d="M21095 8960 c17 -4 39 -8 50 -8 16 0 15 2 -5 8 -14 4 -36 8 -50 8
-22 0 -22 -1 5 -8z"/>
<path d="M21218 8953 c12 -2 32 -2 45 0 12 2 2 4 -23 4 -25 0 -35 -2 -22 -4z"/>
<path d="M20038 8943 c6 -2 18 -2 25 0 6 3 1 5 -13 5 -14 0 -19 -2 -12 -5z"/>
<path d="M21300 8654 c-437 -30 -1030 -107 -1195 -154 -16 -5 -63 -14 -103
-21 -112 -19 -106 -4 -92 -225 6 -104 17 -234 25 -288 8 -55 15 -100 15 -101
0 -1 -30 -5 -67 -8 -77 -7 -159 -45 -217 -102 -57 -55 -71 -90 -71 -180 0
-101 25 -157 107 -237 71 -70 160 -115 271 -136 l83 -15 38 -160 c70 -297 137
-472 231 -602 106 -148 259 -245 458 -291 l79 -18 -8 -31 c-12 -47 -5 -228 10
-243 3 -3 6 18 6 46 0 29 2 52 5 52 4 0 18 -6 33 -14 48 -24 213 -50 317 -50
198 1 418 66 609 181 69 42 188 125 226 158 28 25 65 41 55 24 -4 -5 -2 -16 4
-23 14 -17 15 -52 2 -101 -6 -22 -8 -48 -5 -57 3 -10 0 -18 -6 -18 -6 0 -9 -4
-5 -9 3 -5 1 -12 -3 -15 -12 -7 -3 -56 10 -56 5 0 7 4 4 9 -4 5 -1 11 5 13 6
2 11 20 12 41 0 20 4 37 8 37 18 0 21 92 6 128 -9 20 -19 60 -22 87 -3 28 -10
68 -15 90 -14 58 -14 58 31 111 94 114 192 304 253 491 55 171 123 534 172
911 6 51 24 61 118 67 l61 4 12 68 c21 123 35 286 36 433 l2 145 -120 12
c-347 37 -495 45 -900 48 -231 1 -445 1 -475 -1z m575 -295 c71 -140 179 -270
323 -388 l54 -44 -7 -61 c-22 -211 -65 -389 -118 -491 -54 -102 -259 -289
-274 -249 -13 36 -86 145 -131 195 -62 68 -116 102 -187 118 -254 56 -758 34
-906 -40 -68 -34 -165 -175 -204 -297 -19 -58 -25 -60 -74 -19 -103 85 -188
265 -245 518 -37 168 -42 222 -23 267 43 99 86 375 73 470 -3 23 -2 42 2 41 4
0 34 -18 67 -39 80 -53 171 -100 190 -100 32 0 4 -18 -38 -25 -47 -8 -127 -45
-146 -69 -16 -19 -11 -56 11 -69 12 -8 31 -3 80 21 97 49 228 66 323 41 49
-13 211 -24 321 -23 64 1 91 6 129 25 65 32 98 77 94 126 -4 44 -2 44 101 11
52 -17 92 -21 200 -22 169 -1 226 17 305 99 27 29 51 53 52 54 2 1 14 -22 28
-50z m-1285 -99 c-8 -5 -19 -10 -25 -10 -5 0 -3 5 5 10 8 5 20 10 25 10 6 0 3
-5 -5 -10z m103 -17 c-7 -2 -19 -2 -25 0 -7 3 -2 5 12 5 14 0 19 -2 13 -5z
m807 -962 c15 -30 3 -48 -62 -92 -117 -80 -248 -121 -388 -123 -127 -1 -165
16 -140 64 8 16 26 19 137 22 154 5 228 27 336 99 79 53 101 59 117 30z"/>
<path d="M21497 8190 c-58 -10 -77 -24 -77 -56 0 -37 30 -47 101 -33 91 18
248 6 339 -25 80 -27 105 -27 115 4 11 36 -12 57 -92 85 -65 22 -99 27 -208
30 -71 2 -152 0 -178 -5z"/>
<path d="M20923 7924 c-32 -50 -17 -386 19 -431 14 -17 53 -16 67 1 9 10 7 36
-5 107 -12 70 -15 124 -10 211 5 109 4 118 -13 128 -29 15 -39 13 -58 -16z"/>
<path d="M20429 7861 c-47 -47 -31 -125 30 -151 82 -34 161 54 119 133 -18 34
-40 46 -81 47 -29 0 -45 -7 -68 -29z"/>
<path d="M21553 7875 c-28 -20 -46 -75 -34 -106 24 -65 106 -86 155 -40 36 34
37 101 1 136 -28 29 -88 34 -122 10z"/>
<path d="M22954 7904 c3 -9 6 -18 6 -20 0 -9 39 -3 46 8 5 8 2 9 -9 5 -9 -3
-19 -2 -22 3 -3 4 1 11 7 13 7 3 2 6 -11 6 -17 1 -22 -3 -17 -15z"/>
<path d="M22950 7845 c0 -8 7 -15 15 -15 8 0 15 7 15 15 0 8 -7 15 -15 15 -8
0 -15 -7 -15 -15z"/>
<path d="M22996 7815 c-3 -9 -6 -41 -6 -70 0 -52 -25 -125 -42 -125 -16 0 -8
-33 13 -51 22 -19 18 -39 -7 -39 -8 0 -14 7 -14 15 0 8 -4 15 -10 15 -9 0 -12
-9 -14 -53 -1 -10 -8 -22 -15 -26 -9 -6 -10 -11 -2 -15 6 -4 11 -11 11 -17 0
-12 -37 -12 -45 1 -3 6 -19 10 -36 10 -16 0 -29 -4 -29 -10 0 -5 11 -10 25
-10 15 0 25 -6 25 -14 0 -15 -21 -26 -51 -26 -11 0 -19 -7 -19 -17 0 -14 -2
-15 -9 -5 -7 11 -17 10 -57 -8 -83 -36 -99 -45 -107 -57 -11 -18 -27 -16 -27
2 0 8 -4 15 -10 15 -5 0 -10 -9 -10 -20 0 -18 7 -20 64 -20 206 0 421 169 443
348 6 55 -8 109 -42 160 -18 26 -24 30 -29 17z"/>
<path d="M22922 7760 c0 -19 2 -27 5 -17 2 9 2 25 0 35 -3 9 -5 1 -5 -18z"/>
<path d="M5005 7259 c-220 -165 -449 -336 -508 -380 -285 -211 -475 -407 -655
-676 l-55 -83 -338 0 -339 0 -354 -473 c-335 -449 -366 -486 -408 -487 -4 0 1
17 12 38 10 20 25 70 31 110 31 188 -61 372 -227 453 -148 73 -371 41 -479
-70 -16 -17 -33 -31 -37 -31 -4 0 -14 15 -21 33 -18 41 -71 93 -122 119 -54
28 -149 35 -198 14 l-39 -16 -50 55 c-34 38 -73 66 -125 92 -69 34 -85 38
-172 41 -80 3 -105 0 -154 -18 -149 -56 -245 -189 -263 -365 -6 -56 -1 -89 32
-202 6 -22 3 -23 -40 -23 -60 0 -111 -22 -160 -68 -51 -49 -76 -104 -76 -172
l0 -55 -67 0 c-55 0 -79 -6 -128 -30 l-60 -30 3 -885 c2 -486 4 -885 5 -886 1
-1 58 5 127 12 229 25 333 34 520 49 102 8 219 19 260 24 41 6 138 15 215 21
77 6 185 15 240 20 55 5 199 16 320 25 121 8 274 19 340 25 66 6 167 12 225
15 58 2 285 16 505 29 220 14 542 32 715 40 173 9 371 20 440 26 69 6 269 15
445 20 176 5 367 12 425 15 138 7 913 33 1205 40 127 3 305 8 397 11 l168 6 2
394 3 394 -1110 2 -1110 3 65 22 c36 12 142 42 235 68 94 26 274 76 400 111
127 36 289 81 360 100 269 75 682 193 730 210 46 16 144 17 1154 21 606 3
1114 2 1128 -2 l25 -6 -5 -612 c-3 -337 -8 -623 -10 -637 l-4 -25 -239 -5
c-332 -8 -214 -10 936 -20 1425 -13 2779 -43 3535 -79 110 -6 306 -15 435 -21
129 -6 370 -17 534 -25 164 -9 301 -14 303 -11 8 8 -18 113 -37 152 -18 35
-19 39 -4 47 35 20 94 80 117 120 55 94 69 192 41 288 -21 71 -105 155 -182
183 l-52 18 34 38 c42 47 76 136 76 200 0 48 1 49 33 55 40 6 330 39 577 65
102 11 226 24 275 29 91 11 436 47 710 76 348 36 1045 105 1233 122 151 13
202 21 202 30 0 19 -76 100 -125 133 -102 69 -250 91 -355 51 l-50 -19 -14 26
c-35 67 -107 105 -196 106 -62 0 -89 -8 -140 -45 -12 -9 -25 -2 -60 31 -221
204 -562 266 -853 156 -136 -51 -270 -150 -351 -258 -27 -37 -29 -37 -57 -23
-103 54 -257 10 -317 -90 -19 -31 -32 -43 -42 -38 -83 35 -132 45 -210 45
-144 0 -249 -37 -342 -121 l-49 -44 -62 21 c-34 12 -91 25 -125 29 -62 6 -64
7 -58 32 4 14 9 64 12 111 17 247 -121 453 -339 506 -58 15 -78 15 -134 5 -80
-15 -112 -30 -171 -84 -88 -82 -126 -172 -120 -292 l3 -76 -40 8 c-64 13 -165
7 -231 -14 l-60 -20 -54 196 c-142 522 -266 790 -502 1089 -178 224 -291 326
-713 641 -181 135 -421 315 -533 399 l-203 152 -2527 -1 -2527 0 -400 -300z
m5195 88 c0 -2 -10 -12 -22 -23 l-23 -19 19 23 c18 21 26 27 26 19z m-173
-138 c-15 -11 -25 -25 -21 -30 3 -5 0 -9 -5 -9 -19 0 -12 18 15 39 15 12 29
21 33 21 3 0 -6 -10 -22 -21z m-74 -57 c-15 -16 -36 -31 -46 -35 -10 -4 -16
-11 -12 -16 9 -16 -35 -35 -49 -21 -8 8 -6 9 8 4 13 -5 17 -4 12 4 -3 6 5 19
19 29 14 10 38 28 53 40 38 32 49 28 15 -5z m-214 -160 c-6 -9 -23 -23 -37
-29 -24 -11 -23 -9 8 17 40 35 44 37 29 12z m-99 -77 c-13 -14 -28 -25 -34
-25 -6 1 3 12 19 25 39 32 45 32 15 0z m-59 -38 c-6 -8 -7 -18 -3 -22 4 -5 1
-5 -6 -1 -10 6 -10 11 -1 22 6 8 14 14 16 14 3 0 0 -6 -6 -13z m-26 -27 c3 -5
-1 -10 -10 -10 -9 0 -13 5 -10 10 3 6 8 10 10 10 2 0 7 -4 10 -10z m1165 -265
l0 -255 -200 2 -201 3 0 125 c0 69 0 182 0 253 l1 127 200 0 200 0 0 -255z
m-1214 223 c5 -7 3 -8 -6 -3 -8 5 -18 1 -27 -10 -7 -11 -13 -14 -13 -9 0 12
21 34 31 34 4 0 11 -5 15 -12z m-66 -32 c0 -2 -8 -10 -17 -17 -16 -13 -17 -12
-4 4 13 16 21 21 21 13z m-90 -83 c-22 -21 -61 -57 -85 -81 -25 -24 -45 -39
-45 -33 0 10 151 151 163 151 5 0 -10 -17 -33 -37z m68 5 c8 -10 4 -13 -13
-14 -19 -2 -21 1 -12 12 15 16 13 16 25 2z m-238 -165 c-1 -14 -30 -47 -36
-41 -3 3 3 16 13 27 19 23 23 25 23 14z m-76 -90 c-16 -21 -28 -41 -26 -45 1
-5 -5 -8 -13 -8 -8 0 -15 -4 -15 -10 0 -5 -5 -10 -10 -10 -6 0 11 27 37 59 51
65 75 76 27 14z m-84 -103 c0 -5 -5 -10 -11 -10 -5 0 -7 5 -4 10 3 6 8 10 11
10 2 0 4 -4 4 -10z m-111 -166 c-12 -13 -24 -22 -27 -20 -7 8 32 54 41 49 5
-3 -2 -16 -14 -29z m-46 -59 c-3 -9 -8 -14 -10 -11 -3 3 -2 9 2 15 9 16 15 13
8 -4z m-32 -48 c-10 -9 -11 -8 -5 6 3 10 9 15 12 12 3 -3 0 -11 -7 -18z m-37
-67 c-10 -16 -20 -28 -22 -26 -4 5 28 56 35 56 2 0 -4 -13 -13 -30z m-38 -77
c-8 -15 -15 -25 -16 -21 0 12 23 58 27 54 3 -2 -2 -17 -11 -33z m-36 -78 c-6
-15 -8 -37 -5 -49 5 -19 5 -19 -5 -3 -8 13 -8 27 0 53 7 19 14 33 16 31 3 -2
0 -17 -6 -32z m-47 -120 c-3 -9 -8 -14 -10 -11 -3 3 -2 9 2 15 9 16 15 13 8
-4z m-16 -55 c-6 -16 -13 -27 -15 -25 -7 7 8 55 17 55 5 0 4 -13 -2 -30z m-20
-72 c-3 -7 -5 -2 -5 12 0 14 2 19 5 13 2 -7 2 -19 0 -25z m-27 -74 c-17 -61
-23 -49 -9 17 7 30 14 48 17 41 2 -8 -1 -34 -8 -58z m-53 -176 c-3 -7 -5 -2
-5 12 0 14 2 19 5 13 2 -7 2 -19 0 -25z m-6217 -238 c0 -5 -4 -10 -10 -10 -5
0 -10 5 -10 10 0 6 5 10 10 10 6 0 10 -4 10 -10z m-80 -51 c0 -11 5 -17 10
-14 6 3 10 2 10 -4 0 -22 -19 -20 -34 4 -20 30 -20 35 -1 35 8 0 15 -9 15 -21z
m-30 -139 l-7 -65 -2 61 c0 33 2 64 6 67 11 11 11 5 3 -63z m-1193 -52 c-3 -8
-6 -5 -6 6 -1 11 2 17 5 13 3 -3 4 -12 1 -19z m1653 -208 l0 -231 -92 3 -92 3
1 220 c1 121 2 223 2 228 1 4 42 7 91 7 l90 0 0 -230z m770 0 l0 -230 -90 0
-90 0 0 230 0 230 90 0 90 0 0 -230z m-1230 -110 c0 -165 -3 -300 -7 -300 -5
0 -7 135 -5 300 1 165 5 300 7 300 3 0 5 -135 5 -300z m7174 174 c8 -20 8
-452 0 -482 l-6 -22 -197 2 -196 3 -3 245 c-1 134 0 250 3 257 3 10 51 13 199
13 168 0 195 -2 200 -16z m2751 -244 l0 -255 -197 -3 -198 -2 0 260 0 260 198
-2 197 -3 0 -255z m342 203 c-3 -10 -5 -2 -5 17 0 19 2 27 5 18 2 -10 2 -26 0
-35z m0 -70 c-3 -10 -5 -4 -5 12 0 17 2 24 5 18 2 -7 2 -21 0 -30z m-11392
-83 c3 -5 2 -10 -4 -10 -5 0 -13 5 -16 10 -3 6 -2 10 4 10 5 0 13 -4 16 -10z
m11392 -12 c-3 -8 -6 -5 -6 6 -1 11 2 17 5 13 3 -3 4 -12 1 -19z m-1719 -65
c-81 -2 -216 -2 -300 0 -84 1 -18 3 147 3 165 0 234 -2 153 -3z m-6057 -172
c4 -18 6 -122 5 -230 l-1 -196 -90 0 -90 0 -3 220 c-1 121 0 225 3 233 3 9 26
12 87 10 l82 -3 7 -34z m504 -196 l0 -230 -85 0 -85 0 -3 220 c-1 121 0 225 3
233 3 9 26 12 87 10 l83 -3 0 -230z m490 0 l0 -230 -79 -3 c-44 -2 -83 1 -88
6 -10 10 -11 438 -2 454 3 5 42 7 87 6 l82 -3 0 -230z m490 0 l0 -230 -90 0
-90 0 -3 220 c-1 121 0 225 3 233 3 9 27 12 92 10 l88 -3 0 -230z m4982 -137
c-1 -68 -3 -13 -3 122 0 135 2 190 3 123 2 -68 2 -178 0 -245z m-9001 314
c-15 -15 -15 -15 -4 10 7 15 15 23 17 17 2 -6 -4 -18 -13 -27z m10311 -64 c-3
-8 -6 -5 -6 6 -1 11 2 17 5 13 3 -3 4 -12 1 -19z m0 -70 c-2 -13 -4 -5 -4 17
-1 22 1 32 4 23 2 -10 2 -28 0 -40z m-10265 -231 c-2 -139 -6 -254 -8 -256 -2
-2 -4 91 -4 207 0 121 -4 222 -10 238 -8 19 -8 29 0 34 6 4 10 11 9 16 -3 17
1 27 9 20 4 -4 5 -121 4 -259z m458 13 l0 -231 -92 3 -91 3 -1 223 c-1 123 1
226 3 228 2 2 44 4 93 4 l88 0 0 -230z m770 0 l0 -230 -90 0 -90 0 0 230 0
230 90 0 90 0 0 -230z m-1267 179 c3 -12 3 -18 0 -15 -4 3 -12 1 -20 -5 -10
-9 -13 -6 -13 15 0 31 25 35 33 5z m-46 -5 c-3 -3 -12 -4 -19 -1 -8 3 -5 6 6
6 11 1 17 -2 13 -5z m-960 -46 c-3 -8 -6 -5 -6 6 -1 11 2 17 5 13 3 -3 4 -12
1 -19z m11310 -240 c-2 -24 -4 -5 -4 42 0 47 2 66 4 43 2 -24 2 -62 0 -85z
m-10257 -242 c0 -3 -4 -8 -10 -11 -5 -3 -10 -1 -10 4 0 6 5 11 10 11 6 0 10
-2 10 -4z"/>
<path d="M10372 6583 l3 -188 145 0 145 0 3 188 2 187 -150 0 -150 0 2 -187z"/>
<path d="M2540 4660 l0 -171 58 3 57 3 0 165 0 165 -57 3 -58 3 0 -171z"/>
<path d="M3310 4660 l0 -170 60 0 60 0 0 170 0 170 -60 0 -60 0 0 -170z"/>
<path d="M9060 4480 l0 -190 145 0 145 0 0 190 0 190 -145 0 -145 0 0 -190z"/>
<path d="M11810 4480 l0 -190 145 0 145 0 0 190 0 190 -145 0 -145 0 0 -190z"/>
<path d="M4579 4253 c-1 -4 -1 -82 -1 -173 l0 -165 56 -3 56 -3 -2 173 -3 173
-52 3 c-29 2 -53 -1 -54 -5z"/>
<path d="M5085 4248 c-3 -8 -4 -86 -3 -173 l3 -160 55 0 55 0 0 170 0 170 -53
3 c-37 2 -54 -1 -57 -10z"/>
<path d="M5575 4248 c-3 -8 -4 -86 -3 -173 l3 -160 55 0 55 0 0 170 0 170 -53
3 c-37 2 -54 -1 -57 -10z"/>
<path d="M6057 4253 c-2 -5 -2 -14 -1 -20 1 -7 2 -83 3 -168 l1 -155 55 0 55
0 0 175 0 175 -54 0 c-30 0 -57 -3 -59 -7z"/>
<path d="M2540 3910 l0 -171 58 3 57 3 0 165 0 165 -57 3 -58 3 0 -171z"/>
<path d="M3310 3910 l0 -170 60 0 60 0 0 170 0 170 -60 0 -60 0 0 -170z"/>
<path d="M24360 6145 c-161 -39 -318 -156 -397 -293 -15 -26 -28 -49 -30 -51
-1 -2 -32 6 -69 18 -92 30 -193 36 -281 18 -70 -15 -183 -62 -183 -76 0 -4 39
-24 86 -46 193 -86 389 -233 516 -386 l50 -59 474 0 474 0 0 339 0 339 -57 52
c-67 60 -190 123 -283 144 -79 19 -225 19 -300 1z"/>
<path d="M22066 5934 c-16 -15 -16 -18 1 -37 13 -14 15 -21 6 -24 -7 -3 -13
-18 -13 -34 0 -17 -6 -32 -15 -35 -9 -4 -15 -19 -15 -37 0 -17 -3 -27 -7 -24
-9 9 -35 -52 -27 -64 8 -13 -6 -50 -16 -44 -10 6 -25 -33 -21 -57 3 -21 -14
-31 -39 -23 -11 4 -17 12 -13 21 3 7 0 14 -7 14 -8 0 -10 -9 -5 -27 3 -16 9
-42 12 -60 4 -28 3 -31 -16 -26 -17 4 -21 1 -21 -19 0 -14 -11 -35 -25 -48
-14 -13 -28 -38 -31 -57 -3 -18 -12 -33 -19 -33 -8 0 -16 -9 -20 -19 -3 -11
-12 -22 -20 -25 -18 -6 -20 -36 -3 -36 16 0 -24 -36 -49 -44 -17 -6 -20 -3
-15 19 2 15 0 25 -7 25 -18 0 -12 -56 8 -74 18 -16 20 -15 48 21 46 58 156
231 194 303 19 36 36 67 39 70 13 13 30 52 30 69 0 11 4 21 10 23 17 5 91 234
86 264 -7 35 -11 38 -30 18z"/>
<path d="M22000 5830 c0 -30 13 -40 25 -20 8 13 -4 50 -16 50 -5 0 -9 -13 -9
-30z"/>
<path d="M20877 5826 c-4 -10 -7 -32 -7 -49 0 -43 41 -167 53 -160 6 4 8 -3 4
-16 -3 -13 1 -41 9 -63 25 -71 124 -265 155 -304 16 -20 29 -41 29 -45 0 -5 7
-9 15 -9 8 0 15 8 15 18 0 17 -8 30 -50 79 -6 7 -11 16 -11 20 -1 5 -10 19
-20 32 -11 13 -19 34 -19 47 0 12 -6 24 -12 27 -10 3 -10 9 0 26 7 12 10 27 6
33 -5 7 -10 3 -16 -11 -8 -23 -32 -25 -34 -3 -1 7 -2 19 -3 27 0 8 -8 15 -16
15 -11 0 -14 7 -9 24 3 13 0 34 -7 47 -9 17 -9 24 0 27 6 2 11 18 11 35 0 24
-3 28 -10 17 -9 -13 -10 -13 -10 0 0 8 -9 32 -20 53 -12 21 -27 64 -34 95 -9
39 -14 51 -19 38z m50 -188 c-3 -7 -5 -2 -5 12 0 14 2 19 5 13 2 -7 2 -19 0
-25z"/>
<path d="M21980 5754 c0 -14 4 -23 10 -19 6 3 10 15 10 26 0 10 -4 19 -10 19
-5 0 -10 -12 -10 -26z"/>
<path d="M21007 5544 c-10 -11 -9 -52 3 -59 6 -3 13 1 16 10 8 19 -8 60 -19
49z"/>
<path d="M21700 5270 c0 -5 7 -10 15 -10 8 0 15 5 15 10 0 6 -7 10 -15 10 -8
0 -15 -4 -15 -10z"/>
<path d="M21163 5172 c-13 -2 -23 -7 -23 -10 0 -10 62 -99 99 -142 l29 -35 7
27 c4 15 13 32 21 39 26 22 14 29 -17 10 -18 -11 -37 -17 -44 -15 -19 8 -5 51
18 59 20 6 20 8 4 12 -11 3 -24 -3 -32 -14 -13 -17 -14 -17 -21 1 -4 10 -10
30 -13 45 -5 20 -11 25 -28 23z"/>
<path d="M21654 5125 c-6 -24 -44 -37 -44 -15 0 6 -7 10 -15 10 -8 0 -15 -4
-15 -10 0 -5 5 -10 10 -10 6 0 10 -11 10 -25 0 -28 -21 -33 -44 -10 -10 11
-17 12 -22 4 -3 -6 0 -15 7 -20 7 -4 10 -11 7 -15 -4 -3 -1 -12 5 -19 10 -11
23 -3 69 42 37 36 54 61 50 71 -4 11 -2 13 8 7 9 -5 11 -4 6 3 -12 19 -25 14
-32 -13z"/>
<path d="M21340 5109 c0 -5 5 -7 10 -4 6 3 10 8 10 11 0 2 -4 4 -10 4 -5 0
-10 -5 -10 -11z"/>
<path d="M23365 4923 c-121 -325 -186 -548 -205 -695 -23 -184 -14 -485 35
-1168 31 -431 32 -440 51 -440 19 0 18 56 -6 375 -52 683 -64 1069 -40 1240
20 140 121 475 211 703 32 80 36 112 15 112 -9 0 -32 -47 -61 -127z"/>
<path d="M19596 4998 c-24 -180 -51 -1012 -43 -1302 6 -196 6 -199 -13 -180
-32 33 -119 183 -193 336 -52 106 -77 148 -89 148 -10 0 -18 -5 -18 -10 0 -36
161 -337 280 -522 l37 -56 7 -184 c3 -100 11 -277 17 -391 6 -114 9 -210 7
-212 -4 -4 -371 119 -568 190 -120 44 -117 44 -130 -6 -6 -24 -15 -60 -21 -79
-15 -58 -16 -55 47 -110 201 -173 412 -306 626 -395 46 -19 65 -32 61 -41 -3
-8 -1 -14 5 -14 5 0 12 9 15 21 3 12 -1 229 -9 483 -31 1035 -28 1749 10 2201
7 83 11 153 9 158 -2 4 -10 7 -18 7 -9 0 -16 -16 -19 -42z"/>
<path d="M21340 5014 c0 -8 5 -12 10 -9 6 4 8 11 5 16 -9 14 -15 11 -15 -7z"/>
<path d="M21275 4980 c-6 -9 1 -14 18 -11 4 0 7 -5 7 -11 1 -27 57 -69 98 -73
37 -3 40 -2 46 26 3 19 14 33 30 39 13 5 28 15 32 22 6 10 4 10 -9 -1 -11 -9
-31 -12 -55 -8 -20 2 -48 1 -62 -3 -22 -7 -21 -8 13 -9 37 -1 54 -21 17 -21
-11 0 -20 -4 -20 -10 0 -21 -28 -9 -34 15 -4 14 -11 25 -16 25 -6 0 -10 7 -10
15 0 17 -45 21 -55 5z"/>
<path d="M21390 4831 c0 -16 9 -165 20 -332 23 -352 47 -812 56 -1082 5 -140
11 -190 21 -198 7 -7 16 -9 19 -6 13 12 -62 1492 -82 1615 -6 41 -34 44 -34 3z"/>
<path d="M8083 4837 c16 -5 38 -5 54 0 22 8 18 9 -27 9 -45 0 -49 -1 -27 -9z"/>
<path d="M8028 4833 c7 -3 16 -2 19 1 4 3 -2 6 -13 5 -11 0 -14 -3 -6 -6z"/>
<path d="M7930 4810 c-30 -10 -57 -18 -60 -17 -8 1 -93 -24 -112 -34 -10 -5
-27 -9 -38 -9 -12 0 -19 -4 -16 -9 4 -5 -2 -7 -11 -5 -10 3 -110 -22 -223 -56
-113 -33 -214 -62 -225 -64 -31 -6 -368 -97 -390 -106 -11 -4 -75 -23 -143
-41 -83 -23 -114 -35 -96 -37 21 -3 24 -6 13 -13 -9 -5 18 -9 74 -9 86 0 122
10 141 39 7 11 10 11 16 0 7 -10 25 -8 92 11 46 12 91 24 101 25 10 1 22 7 27
14 4 7 39 17 79 21 39 4 77 13 85 19 8 7 18 11 22 10 23 -4 44 2 59 17 10 11
24 14 42 10 20 -6 24 -4 20 8 -4 11 2 14 26 14 36 -1 56 4 75 16 7 4 16 5 19
2 3 -3 11 -2 17 3 6 5 25 11 42 14 17 3 40 9 50 15 11 5 48 17 84 26 36 9 75
23 86 31 12 8 44 16 71 19 26 3 50 5 53 6 3 0 -8 7 -25 16 l-30 14 29 -5 c22
-5 27 -3 23 9 -8 21 15 26 30 7 11 -14 14 -13 30 9 10 14 17 29 15 33 -1 4 15
6 35 3 30 -4 33 -4 13 3 -34 12 -38 12 -100 -9z m-47 -37 c-7 -2 -19 -2 -25 0
-7 3 -2 5 12 5 14 0 19 -2 13 -5z m-266 -109 c-3 -3 -12 -4 -19 -1 -8 3 -5 6
6 6 11 1 17 -2 13 -5z m-569 -151 c-10 -2 -26 -2 -35 0 -10 3 -2 5 17 5 19 0
27 -2 18 -5z m-371 -79 c-3 -3 -12 -4 -19 -1 -8 3 -5 6 6 6 11 1 17 -2 13 -5z"/>
<path d="M21226 4609 c-52 -41 -20 -129 48 -129 34 0 76 41 76 75 0 33 -41 75
-73 75 -13 0 -36 -9 -51 -21z"/>
<path d="M24650 4335 c-83 -38 -135 -99 -172 -204 -28 -79 -28 -206 0 -286 11
-33 19 -61 18 -62 -2 -2 -16 3 -32 11 -16 8 -42 18 -58 22 -25 6 -28 5 -21
-15 3 -11 23 -107 44 -213 l37 -193 267 -3 267 -2 0 410 0 411 -43 42 c-23 24
-65 54 -92 67 -63 31 -164 37 -215 15z"/>
<path d="M22444 3870 c-52 -20 -69 -88 -33 -134 56 -71 156 26 103 102 -21 30
-45 41 -70 32z"/>
<path d="M20141 3844 c-27 -34 -27 -84 -1 -112 26 -28 50 -28 84 -1 35 27 36
86 3 117 -31 29 -61 28 -86 -4z"/>
<path d="M8148 3713 c6 -2 18 -2 25 0 6 3 1 5 -13 5 -14 0 -19 -2 -12 -5z"/>
<path d="M8278 3713 c12 -2 30 -2 40 0 9 3 -1 5 -23 4 -22 0 -30 -2 -17 -4z"/>
<path d="M7118 3703 c12 -2 30 -2 40 0 9 3 -1 5 -23 4 -22 0 -30 -2 -17 -4z"/>
<path d="M7365 3699 c-115 -5 -241 -6 -279 -3 -49 5 -67 3 -62 -5 4 -6 36 -11
76 -11 38 0 71 -4 74 -9 3 -5 58 -10 122 -10 80 -1 113 2 109 9 -5 8 60 11
222 11 125 0 320 3 433 8 l205 8 -315 -1 c-173 0 -328 2 -345 5 -16 3 -124 2
-240 -2z m-52 -26 c-13 -2 -35 -2 -50 0 -16 2 -5 4 22 4 28 0 40 -2 28 -4z"/>
<path d="M6798 3683 c12 -2 32 -2 45 0 12 2 2 4 -23 4 -25 0 -35 -2 -22 -4z"/>
<path d="M6838 3663 c34 -2 90 -2 125 0 34 2 6 3 -63 3 -69 0 -97 -1 -62 -3z"/>
<path d="M20848 3626 c-15 -11 -11 -13 30 -12 26 0 39 2 30 4 -10 2 -18 8 -18
13 0 13 -22 11 -42 -5z"/>
<path d="M20748 3608 c-27 -6 -48 -14 -48 -19 0 -10 83 -12 117 -3 19 5 20 8
8 20 -7 8 -17 13 -22 13 -4 -1 -29 -6 -55 -11z"/>
<path d="M20926 3585 c25 -19 44 -19 44 0 0 10 -10 15 -32 15 -30 0 -31 -1
-12 -15z"/>
<path d="M21020 3556 c0 -2 7 -7 16 -10 8 -3 12 -2 9 4 -6 10 -25 14 -25 6z"/>
<path d="M20530 3532 c0 -5 -16 -9 -35 -10 -20 -1 -43 -6 -52 -11 -11 -6 7 -8
56 -6 76 3 87 7 76 24 -7 13 -45 15 -45 3z"/>
<path d="M21056 3511 c-9 -10 -12 -22 -6 -30 7 -12 11 -11 25 2 9 10 21 17 26
17 17 0 9 18 -10 23 -11 3 -26 -2 -35 -12z"/>
<path d="M21308 3493 c-23 -28 -28 -51 -17 -80 13 -35 26 -43 67 -43 41 0 72
30 72 70 0 17 -9 39 -20 50 -25 25 -81 27 -102 3z"/>
<path d="M20400 3489 c0 -5 5 -7 10 -4 6 3 10 8 10 11 0 2 -4 4 -10 4 -5 0
-10 -5 -10 -11z"/>
<path d="M21127 3483 c-14 -14 -6 -33 14 -33 11 0 30 -5 42 -12 17 -9 15 -4
-8 20 -31 33 -37 36 -48 25z"/>
<path d="M20344 3465 c-18 -15 -18 -15 5 -13 14 2 26 9 29 16 5 17 -10 15 -34
-3z"/>
<path d="M20278 3433 c7 -3 16 -2 19 1 4 3 -2 6 -13 5 -11 0 -14 -3 -6 -6z"/>
<path d="M21205 3420 c-3 -5 1 -10 10 -10 9 0 13 5 10 10 -3 6 -8 10 -10 10
-2 0 -7 -4 -10 -10z"/>
<path d="M20225 3400 c-3 -5 1 -10 9 -10 9 0 16 5 16 10 0 6 -4 10 -9 10 -6 0
-13 -4 -16 -10z"/>
<path d="M20164 3365 c-10 -7 -16 -17 -12 -21 4 -4 14 -2 21 4 8 7 17 9 20 5
4 -3 7 -1 7 5 0 19 -16 22 -36 7z"/>
<path d="M20240 3340 c0 -5 5 -10 10 -10 6 0 10 5 10 10 0 6 -4 10 -10 10 -5
0 -10 -4 -10 -10z"/>
<path d="M20095 3310 c-3 -11 -11 -20 -16 -20 -11 0 -39 -25 -39 -34 0 -3 9
-6 20 -6 11 0 20 7 20 15 0 9 8 19 18 22 18 7 42 28 42 37 0 16 -39 3 -45 -14z"/>
<path d="M20190 3300 c0 -5 7 -10 15 -10 8 0 15 5 15 10 0 6 -7 10 -15 10 -8
0 -15 -4 -15 -10z"/>
<path d="M21340 3300 c0 -5 5 -10 10 -10 6 0 10 5 10 10 0 6 -4 10 -10 10 -5
0 -10 -4 -10 -10z"/>
<path d="M20296 3257 c-40 -25 -74 -54 -156 -137 -132 -131 -214 -269 -264
-443 -28 -95 -50 -241 -41 -265 3 -8 0 -19 -7 -24 -18 -11 4 -11 34 1 22 8 25
18 35 112 18 160 83 330 173 458 51 72 170 192 232 234 50 33 56 45 36 65 -14
14 -17 14 -42 -1z"/>
<path d="M19991 3206 c-20 -21 -20 -24 -5 -30 19 -7 44 10 44 30 0 24 -17 24
-39 0z"/>
<path d="M21444 3215 c-8 -20 21 -54 35 -40 6 6 2 19 -10 34 -17 20 -20 21
-25 6z"/>
<path d="M21510 3176 c0 -15 27 -29 34 -18 3 5 -4 13 -15 20 -15 10 -19 10
-19 -2z"/>
<path d="M19936 3151 c-4 -6 -4 -16 0 -22 3 -6 0 -15 -7 -20 -8 -5 -9 -9 -3
-9 21 0 36 28 26 46 -6 11 -11 13 -16 5z"/>
<path d="M21560 3140 c0 -13 32 -28 48 -23 10 4 8 9 -5 19 -21 16 -43 18 -43
4z"/>
<path d="M21528 3103 c7 -3 16 -2 19 1 4 3 -2 6 -13 5 -11 0 -14 -3 -6 -6z"/>
<path d="M19880 3074 c0 -8 5 -12 10 -9 6 3 10 10 10 16 0 5 -4 9 -10 9 -5 0
-10 -7 -10 -16z"/>
<path d="M20560 3067 c-70 -42 -186 -133 -245 -192 -117 -117 -228 -303 -274
-461 -28 -95 -28 -126 0 -122 17 2 25 16 39 74 24 94 81 223 116 265 8 8 14
19 14 23 0 16 112 154 167 206 74 71 102 92 188 144 48 29 70 49 70 62 0 27
-33 27 -75 1z"/>
<path d="M21720 3050 c0 -6 7 -10 15 -10 8 0 15 2 15 4 0 2 -7 6 -15 10 -8 3
-15 1 -15 -4z"/>
<path d="M19858 3038 c-3 -7 2 -19 9 -27 19 -18 22 -11 7 17 -8 16 -13 19 -16
10z"/>
<path d="M21770 3031 c0 -10 38 -18 63 -13 9 2 15 8 12 13 -8 12 -75 12 -75 0z"/>
<path d="M21866 2995 c6 -16 54 -21 54 -6 0 5 -10 11 -22 15 -34 9 -38 7 -32
-9z"/>
<path d="M19831 2987 c-13 -16 -4 -50 12 -44 13 4 17 30 8 46 -6 9 -11 8 -20
-2z"/>
<path d="M21950 2970 c0 -5 7 -10 15 -10 8 0 15 -4 15 -10 0 -5 7 -10 15 -10
8 0 15 5 15 10 0 6 -7 10 -15 10 -8 0 -15 5 -15 10 0 6 -7 10 -15 10 -8 0 -15
-4 -15 -10z"/>
<path d="M22022 2928 c7 -19 38 -22 38 -4 0 10 -9 16 -21 16 -12 0 -19 -5 -17
-12z"/>
<path d="M22095 2870 c3 -5 13 -10 21 -10 8 0 14 5 14 10 0 6 -9 10 -21 10
-11 0 -17 -4 -14 -10z"/>
<path d="M22187 2864 c-14 -14 -7 -25 13 -22 12 2 21 8 21 13 0 12 -24 18 -34
9z"/>
<path d="M20820 2841 c-8 -5 -44 -24 -80 -41 -95 -48 -175 -108 -262 -197 -85
-85 -113 -123 -170 -227 -43 -78 -49 -116 -18 -116 14 0 28 17 50 60 103 203
242 341 449 445 38 19 75 35 81 35 6 0 10 10 8 23 -3 24 -32 33 -58 18z"/>
<path d="M19760 2818 c0 -19 2 -20 10 -8 13 19 13 30 0 30 -5 0 -10 -10 -10
-22z"/>
<path d="M22257 2834 c7 -3 9 -12 6 -20 -6 -15 5 -18 31 -8 23 9 1 34 -28 33
-11 0 -16 -3 -9 -5z"/>
<path d="M22325 2790 c3 -5 17 -10 31 -10 14 0 22 4 19 10 -3 6 -17 10 -31 10
-14 0 -22 -4 -19 -10z"/>
<path d="M19742 2755 c0 -16 2 -22 5 -12 2 9 2 23 0 30 -3 6 -5 -1 -5 -18z"/>
<path d="M24315 2775 c-9 -4 -593 -97 -815 -131 -51 -8 -123 -19 -157 -25
l-64 -11 3 -50 3 -51 75 -6 c41 -3 217 -6 390 -5 261 1 341 4 467 22 84 11
158 24 164 27 10 7 6 138 -7 208 -5 26 -27 34 -59 22z"/>
<path d="M22450 2735 c0 -8 14 -17 34 -21 53 -9 66 1 22 20 -47 20 -56 20 -56
1z"/>
<path d="M22505 2660 c-4 -6 5 -10 20 -10 15 0 24 4 20 10 -3 6 -12 10 -20 10
-8 0 -17 -4 -20 -10z"/>
<path d="M22648 2658 c5 -5 16 -8 23 -6 8 3 3 7 -10 11 -17 4 -21 3 -13 -5z"/>
<path d="M19720 2645 c0 -8 5 -15 10 -15 6 0 10 7 10 15 0 8 -4 15 -10 15 -5
0 -10 -7 -10 -15z"/>
<path d="M22585 2640 c-3 -5 1 -10 10 -10 9 0 13 5 10 10 -3 6 -8 10 -10 10
-2 0 -7 -4 -10 -10z"/>
<path d="M22760 2620 c0 -6 7 -10 15 -10 8 0 15 2 15 4 0 2 -7 6 -15 10 -8 3
-15 1 -15 -4z"/>
<path d="M22800 2575 c0 -20 23 -29 55 -21 23 6 24 8 11 21 -20 20 -66 20 -66
0z"/>
<path d="M20673 2526 c-89 -65 -122 -119 -177 -284 -34 -101 -78 -152 -130
-152 -48 0 -78 36 -78 94 -1 25 -5 46 -9 46 -5 0 -26 -27 -49 -59 -43 -65 -64
-76 -116 -67 -42 8 -64 46 -64 111 0 25 -4 45 -8 45 -19 0 -69 -66 -215 -285
-239 -358 -848 -1268 -863 -1290 -33 -47 -436 -652 -445 -667 -9 -17 9 -18
324 -18 l333 0 145 218 c224 335 222 331 249 338 39 10 46 20 60 83 7 32 22
75 34 95 11 20 286 433 610 917 324 484 587 881 585 882 -72 51 -110 50 -186
-7z"/>
<path d="M22903 2553 c-28 -5 -31 -23 -4 -23 10 0 21 7 25 15 3 8 4 14 3 14
-1 -1 -12 -4 -24 -6z"/>
<path d="M22940 2540 c0 -5 7 -10 15 -10 8 0 15 5 15 10 0 6 -7 10 -15 10 -8
0 -15 -4 -15 -10z"/>
<path d="M18680 2524 c-269 -31 -560 -64 -622 -69 -38 -4 -68 -10 -68 -13 0
-4 19 -18 41 -32 136 -83 222 -267 205 -438 l-7 -65 33 7 c18 4 120 23 227 41
106 19 196 36 198 39 3 3 34 117 68 255 34 137 66 254 70 261 7 11 -12 32 -25
28 -3 0 -57 -7 -120 -14z"/>
<path d="M22970 2515 c-23 -13 -23 -14 -5 -21 11 -5 20 -3 23 4 2 7 10 12 18
12 9 0 12 5 9 10 -8 12 -13 12 -45 -5z"/>
<path d="M16821 2476 c-36 -38 -11 -55 94 -64 107 -10 286 -4 300 9 5 5 17 9
27 9 10 0 18 6 18 14 0 8 8 17 18 20 44 13 -91 -4 -156 -20 -85 -21 -147 -13
-231 30 l-49 24 -21 -22z"/>
<path d="M17840 2494 c14 -3 49 -12 78 -20 33 -9 58 -11 69 -6 25 15 2 22 -89
26 -45 3 -72 2 -58 0z"/>
<path d="M17545 2477 c-38 -15 -75 -47 -75 -65 0 -16 -3 -17 70 22 30 16 73
35 95 42 l40 13 -50 0 c-27 0 -64 -6 -80 -12z"/>
<path d="M22915 2480 c3 -5 10 -10 16 -10 5 0 9 5 9 10 0 6 -7 10 -16 10 -8 0
-12 -4 -9 -10z"/>
<path d="M23070 2486 c0 -2 7 -6 15 -10 8 -3 15 -1 15 4 0 6 -7 10 -15 10 -8
0 -15 -2 -15 -4z"/>
<path d="M21300 2460 c20 -13 60 -13 60 0 0 6 -17 10 -37 10 -28 0 -34 -3 -23
-10z"/>
<path d="M21068 2453 c7 -3 16 -2 19 1 4 3 -2 6 -13 5 -11 0 -14 -3 -6 -6z"/>
<path d="M21208 2443 c7 -3 16 -2 19 1 4 3 -2 6 -13 5 -11 0 -14 -3 -6 -6z"/>
<path d="M24398 2435 c-6 -31 14 -295 23 -295 4 0 48 13 96 28 48 16 101 32
118 36 29 7 29 7 12 -12 -16 -17 -16 -20 -3 -25 9 -4 13 -13 10 -21 -6 -17 21
-22 177 -31 117 -8 169 0 169 25 0 16 -4 17 -37 8 -21 -6 -69 -8 -106 -5 -137
12 -239 110 -262 255 -6 39 -9 42 -39 42 -18 0 -60 3 -94 6 -52 6 -60 4 -64
-11z"/>
<path d="M19746 2415 c4 -8 10 -15 15 -15 5 0 9 7 9 15 0 8 -7 15 -15 15 -9 0
-12 -6 -9 -15z"/>
<path d="M21138 2423 c7 -3 16 -2 19 1 4 3 -2 6 -13 5 -11 0 -14 -3 -6 -6z"/>
<path d="M21180 2412 c0 -13 68 -21 100 -11 20 6 15 7 -22 8 -25 1 -53 4 -62
7 -9 3 -16 2 -16 -4z"/>
<path d="M23230 2410 c0 -5 4 -10 9 -10 6 0 13 5 16 10 3 6 -1 10 -9 10 -9 0
-16 -4 -16 -10z"/>
<path d="M17451 2394 c-1 -12 -93 -28 -426 -73 -287 -39 -328 -45 -530 -75
-246 -36 -299 -44 -405 -60 -52 -8 -138 -22 -190 -30 -52 -8 -210 -33 -350
-55 -140 -22 -295 -45 -345 -51 -49 -7 -96 -14 -103 -16 -7 -2 18 -32 59 -71
151 -143 228 -314 229 -505 0 -90 -4 -87 100 -62 36 8 175 38 310 65 225 45
372 74 1220 235 275 52 383 66 350 44 -9 -6 -10 -10 -3 -10 23 0 22 17 -7 77
-43 90 -53 141 -48 247 3 84 8 102 41 167 20 41 52 91 72 113 21 22 34 45 32
55 -3 9 -5 11 -6 5z"/>
<path d="M19780 2384 c0 -8 5 -12 10 -9 6 4 8 11 5 16 -9 14 -15 11 -15 -7z"/>
<path d="M21310 2390 c0 -5 9 -10 20 -10 11 0 20 5 20 10 0 6 -9 10 -20 10
-11 0 -20 -4 -20 -10z"/>
<path d="M21649 2372 c5 -9 10 -21 11 -27 4 -21 10 -17 10 7 0 14 -7 28 -15
32 -12 4 -13 2 -6 -12z"/>
<path d="M21493 2353 c-10 -3 -13 -47 -13 -171 0 -253 -20 -670 -55 -1147 -15
-201 -29 -347 -65 -683 -11 -100 -20 -194 -20 -207 0 -32 28 -34 34 -2 19 86
87 835 111 1227 30 479 44 991 28 989 -5 0 -14 -3 -20 -6z"/>
<path d="M14887 2289 c-91 -40 -176 -48 -262 -24 -36 9 -68 21 -71 26 -9 15
-34 10 -61 -11 -22 -17 -23 -20 -7 -20 17 -1 17 -2 3 -13 -9 -7 -14 -18 -12
-24 3 -7 0 -13 -7 -13 -6 0 -9 -4 -6 -9 7 -10 -17 -21 -45 -21 -10 0 -19 -5
-19 -11 0 -5 -4 -8 -8 -5 -5 3 -21 -4 -38 -15 -16 -11 -39 -24 -52 -29 -39
-16 -106 -72 -147 -123 -22 -26 -46 -55 -53 -62 -6 -8 -8 -16 -3 -19 5 -3 28
13 52 37 83 81 164 130 284 173 75 27 89 29 235 29 160 -1 188 -7 344 -70 38
-16 10 20 -36 45 -24 14 -53 33 -62 43 -10 9 -32 18 -49 18 -24 1 -26 3 -9 6
12 2 27 13 32 23 5 10 20 20 32 22 16 2 23 10 22 24 0 16 5 20 23 16 29 -5 60
17 41 29 -22 14 -50 9 -121 -22z m-380 -71 c-3 -8 -6 -5 -6 6 -1 11 2 17 5 13
3 -3 4 -12 1 -19z m380 -44 c-3 -3 -12 -4 -19 -1 -8 3 -5 6 6 6 11 1 17 -2 13
-5z"/>
<path d="M21670 2310 c0 -5 5 -10 10 -10 6 0 10 5 10 10 0 6 -4 10 -10 10 -5
0 -10 -4 -10 -10z"/>
<path d="M21710 2294 c0 -10 28 -34 39 -34 18 0 12 19 -8 30 -22 11 -31 13
-31 4z"/>
<path d="M19873 2267 c8 -12 22 -24 32 -25 25 -6 2 34 -25 41 -20 5 -20 4 -7
-16z"/>
<path d="M21810 2271 c0 -5 -10 -12 -22 -16 -20 -6 -20 -8 -5 -12 9 -2 17 -9
17 -14 0 -5 7 -9 16 -9 13 0 14 3 5 14 -6 7 -9 21 -5 30 3 9 3 16 0 16 -3 0
-6 -4 -6 -9z"/>
<path d="M21860 2230 c0 -5 7 -10 16 -10 8 0 12 -4 9 -10 -3 -5 -1 -10 5 -10
7 0 9 7 6 16 -3 9 -6 18 -6 20 0 2 -7 4 -15 4 -8 0 -15 -4 -15 -10z"/>
<path d="M21311 2176 c-51 -54 8 -139 78 -115 17 6 36 19 41 29 42 78 -59 150
-119 86z"/>
<path d="M22020 2150 c0 -5 7 -7 15 -4 8 4 15 8 15 10 0 2 -7 4 -15 4 -8 0
-15 -4 -15 -10z"/>
<path d="M21959 2126 c42 -31 51 -32 51 -6 0 12 -7 20 -17 20 -10 0 -29 3 -43
6 -22 6 -21 4 9 -20z"/>
<path d="M13188 2113 c6 -2 18 -2 25 0 6 3 1 5 -13 5 -14 0 -19 -2 -12 -5z"/>
<path d="M22028 2088 c9 -9 15 -9 24 0 9 9 7 12 -12 12 -19 0 -21 -3 -12 -12z"/>
<path d="M15058 2063 c7 -3 16 -2 19 1 4 3 -2 6 -13 5 -11 0 -14 -3 -6 -6z"/>
<path d="M22120 2021 c0 -5 7 -12 16 -15 24 -9 27 -7 10 9 -17 17 -26 19 -26
6z"/>
<path d="M24930 1980 c-30 -10 -162 -53 -292 -95 -187 -60 -238 -80 -238 -93
-1 -43 -30 -235 -45 -293 -22 -85 -68 -191 -105 -242 -16 -23 -53 -58 -81 -77
-49 -33 -56 -35 -155 -38 l-104 -4 0 -298 0 -299 57 54 c107 102 244 157 403
160 l95 1 145 95 c162 106 240 156 329 212 l61 37 0 450 c0 248 -3 450 -7 449
-5 0 -33 -9 -63 -19z"/>
<path d="M11800 1900 c-69 -70 -75 -78 -58 -89 14 -9 18 -8 18 4 0 8 3 14 8
13 15 -3 62 26 62 39 0 8 4 12 9 9 5 -3 28 13 52 36 35 34 40 43 26 46 -9 2
-15 7 -13 11 3 4 -2 8 -12 8 -9 0 -50 -35 -92 -77z"/>
<path d="M22208 1964 c12 -8 30 -13 40 -11 12 3 11 5 -5 6 -13 0 -23 6 -23 11
0 6 -8 10 -17 10 -14 0 -13 -3 5 -16z"/>
<path d="M22290 1935 c-17 -20 -9 -27 25 -23 27 3 27 3 8 21 -18 16 -21 16
-33 2z"/>
<path d="M14080 1889 c0 -5 5 -7 10 -4 6 3 10 8 10 11 0 2 -4 4 -10 4 -5 0
-10 -5 -10 -11z"/>
<path d="M18198 1822 c-52 -110 -126 -181 -232 -224 -74 -29 -91 -32 -196 -32
-110 -1 -118 1 -184 32 -37 17 -74 32 -82 32 -8 0 -14 5 -14 10 0 6 -4 10 -10
10 -5 0 -25 17 -45 38 -21 22 -35 31 -35 22 0 -17 56 -80 71 -80 5 0 9 -9 9
-19 0 -11 5 -23 10 -26 6 -4 8 -10 5 -15 -12 -19 30 -31 141 -41 70 -6 122
-15 126 -22 6 -9 8 -9 8 1 0 9 15 13 48 12 72 -2 156 11 165 26 4 8 17 14 28
14 11 0 24 10 29 23 5 12 9 19 9 15 1 -5 10 0 21 10 10 9 39 33 64 52 25 19
51 47 58 62 7 15 16 24 20 22 4 -3 8 17 8 45 0 37 5 53 18 61 11 8 13 13 5 16
-7 3 -9 12 -6 20 3 8 4 14 2 14 -2 0 -21 -35 -41 -78z"/>
<path d="M22386 1873 c-11 -11 -6 -23 9 -23 8 0 15 4 15 9 0 13 -16 22 -24 14z"/>
<path d="M11050 1863 c-37 -14 -41 -25 -13 -40 18 -9 30 -10 36 -4 13 13 37
-5 37 -25 0 -8 6 -14 13 -14 8 0 13 -10 13 -22 -1 -22 5 -24 104 -35 58 -7
117 -11 132 -8 19 3 31 -1 37 -13 9 -15 12 -15 20 -2 8 11 37 16 127 19 104 3
117 5 121 22 4 13 14 19 34 19 33 0 38 19 13 44 -8 9 -17 16 -19 16 -1 0 -32
-14 -67 -30 -89 -42 -200 -57 -295 -41 -70 12 -186 61 -243 101 -16 11 -30 20
-32 19 -1 0 -10 -3 -18 -6z"/>
<path d="M13970 1834 c-61 -12 -399 -77 -830 -160 -400 -77 -1098 -221 -1545
-320 -115 -25 -257 -55 -315 -66 -58 -11 -106 -21 -108 -22 -1 -2 33 -39 76
-82 172 -173 280 -396 301 -619 5 -54 9 -70 21 -68 8 1 267 65 575 141 308 77
637 159 730 181 203 49 656 154 775 181 47 11 132 30 190 43 173 40 179 41
186 20 4 -10 19 -45 34 -79 30 -67 110 -145 157 -154 25 -5 28 -9 25 -38 -3
-26 0 -32 16 -32 15 0 18 -6 14 -29 -5 -34 -9 -33 223 -54 129 -12 474 -7 513
8 6 2 12 13 12 24 0 16 8 20 42 23 23 2 43 8 45 14 4 13 -39 64 -54 64 -6 0
-43 -15 -84 -34 -82 -38 -210 -66 -299 -66 -94 0 -218 28 -309 71 -46 21 -89
39 -96 39 -14 0 -127 108 -178 171 -42 52 -109 206 -127 294 -16 77 -16 213 0
290 14 72 54 176 87 227 12 21 23 40 23 43 0 7 -26 5 -100 -11z"/>
<path d="M22420 1840 c0 -5 7 -10 15 -10 8 0 15 -4 15 -10 0 -5 7 -10 15 -10
8 0 15 5 15 10 0 6 -7 10 -15 10 -8 0 -15 5 -15 10 0 6 -7 10 -15 10 -8 0 -15
-4 -15 -10z"/>
<path d="M22490 1840 c0 -5 9 -10 20 -10 11 0 20 5 20 10 0 6 -9 10 -20 10
-11 0 -20 -4 -20 -10z"/>
<path d="M22545 1820 c-3 -5 -1 -10 4 -10 6 0 11 5 11 10 0 6 -2 10 -4 10 -3
0 -8 -4 -11 -10z"/>
<path d="M11080 1796 c0 -8 4 -17 9 -20 5 -4 7 3 4 14 -6 23 -13 26 -13 6z"/>
<path d="M22530 1766 c0 -5 60 -36 68 -36 3 0 -3 9 -13 20 -16 17 -55 28 -55
16z"/>
<path d="M22713 1659 c14 -8 22 -8 30 0 8 8 3 11 -18 11 -26 -1 -28 -2 -12
-11z"/>
<path d="M22755 1640 c3 -5 10 -10 16 -10 5 0 9 5 9 10 0 6 -7 10 -16 10 -8 0
-12 -4 -9 -10z"/>
<path d="M22850 1640 c0 -5 4 -10 9 -10 6 0 13 5 16 10 3 6 -1 10 -9 10 -9 0
-16 -4 -16 -10z"/>
<path d="M22803 1617 c-3 -5 1 -13 8 -18 21 -13 29 -11 29 9 0 19 -26 26 -37
9z"/>
<path d="M22875 1591 c-30 -7 -30 -7 -8 -19 19 -11 24 -9 33 8 6 11 9 19 8 19
-2 -1 -16 -4 -33 -8z"/>
<path d="M10332 1524 c-163 -29 -340 -106 -467 -202 -90 -68 -199 -186 -221
-237 -10 -25 -22 -45 -26 -45 -4 0 -8 -9 -8 -20 0 -11 -4 -20 -9 -20 -8 0 -24
-60 -18 -67 2 -2 24 27 49 65 104 156 214 262 358 347 336 197 728 193 1079
-11 65 -37 98 -51 105 -44 7 7 5 10 -5 10 -7 0 -32 16 -54 35 -22 19 -47 41
-55 48 -143 123 -475 188 -728 141z"/>
<path d="M22985 1510 c-4 -6 5 -10 19 -10 14 0 26 -4 26 -10 0 -5 9 -10 20
-10 11 0 20 5 20 10 0 6 -7 10 -16 10 -8 0 -12 5 -9 10 4 6 -6 10 -24 10 -16
0 -33 -4 -36 -10z"/>
<path d="M23066 1471 c-4 -5 0 -11 6 -14 18 -5 48 3 48 14 0 12 -47 12 -54 0z"/>
<path d="M23150 1430 c0 -5 9 -10 21 -10 11 0 17 -4 14 -10 -7 -11 28 -14 38
-3 4 3 2 12 -4 20 -13 15 -69 18 -69 3z"/>
<path d="M23310 1350 c0 -5 8 -10 18 -10 9 0 26 -7 36 -15 11 -8 31 -15 44
-15 34 0 22 24 -14 28 -16 2 -33 8 -38 13 -13 12 -46 12 -46 -1z"/>
<path d="M23440 1350 c0 -5 11 -10 25 -10 14 0 25 5 25 10 0 6 -11 10 -25 10
-14 0 -25 -4 -25 -10z"/>
<path d="M15395 1314 c-25 -155 -136 -344 -260 -444 -49 -39 -57 -51 -46 -69
6 -9 15 -5 32 13 13 14 29 26 34 26 28 1 175 164 190 209 3 12 13 21 21 21 10
0 13 8 9 27 -3 17 4 45 16 70 14 29 20 62 20 108 0 77 -7 94 -16 39z"/>
<path d="M23460 1290 c0 -13 11 -13 30 0 12 8 11 10 -7 10 -13 0 -23 -4 -23
-10z"/>
<path d="M23505 1270 c-3 -5 3 -10 14 -10 12 0 21 5 21 10 0 6 -6 10 -14 10
-8 0 -18 -4 -21 -10z"/>
<path d="M7582 1218 c-11 -29 -23 -63 -27 -75 -3 -11 -31 -59 -61 -105 -104
-156 -209 -245 -370 -314 -147 -63 -221 -78 -379 -77 -157 1 -246 21 -381 88
-49 25 -93 45 -97 45 -9 0 -39 24 -102 83 -53 48 -80 56 -114 36 -17 -11 -17
-13 -1 -28 24 -23 176 -102 183 -95 3 3 10 3 16 -1 7 -4 0 -15 -16 -29 -34
-29 -24 -44 36 -52 45 -6 47 -7 43 -34 -4 -26 -2 -28 50 -34 197 -24 501 -33
686 -20 82 6 91 9 94 28 2 15 11 22 33 24 17 1 40 5 53 7 21 5 22 7 7 35 -9
17 -21 30 -27 30 -6 0 -9 3 -6 6 4 3 9 5 12 5 11 -2 91 33 111 48 32 25 195
193 195 202 0 4 14 28 31 53 16 25 32 56 34 68 3 13 9 24 15 26 5 2 10 13 10
24 0 11 10 31 23 43 12 12 30 31 39 43 18 22 18 22 -26 22 -43 0 -44 0 -64
-52z"/>
<path d="M23650 1219 c0 -5 9 -9 20 -9 11 0 20 2 20 4 0 2 -9 6 -20 9 -11 3
-20 1 -20 -4z"/>
<path d="M23703 1193 c9 -2 25 -2 35 0 9 3 1 5 -18 5 -19 0 -27 -2 -17 -5z"/>
<path d="M23788 1173 c7 -3 16 -2 19 1 4 3 -2 6 -13 5 -11 0 -14 -3 -6 -6z"/>
<path d="M18305 1139 c-57 -18 -762 -200 -1114 -289 -150 -38 -275 -71 -278
-73 -2 -3 20 -8 49 -12 354 -48 656 -354 704 -714 l7 -52 94 3 95 3 64 145
c35 80 69 154 74 165 29 59 360 820 360 827 0 10 -16 9 -55 -3z"/>
<path d="M21246 958 c-20 -29 -20 -67 0 -96 11 -16 25 -22 54 -22 102 0 105
130 2 138 -32 2 -43 -1 -56 -20z"/>
<path d="M9130 779 c-995 -255 -1565 -406 -2020 -534 -85 -24 -294 -83 -465
-130 -170 -48 -328 -93 -350 -100 -34 -11 218 -14 1623 -14 914 -1 1662 1
1662 4 0 2 -10 28 -21 57 -50 125 -72 243 -72 388 0 154 26 277 88 423 5 11 3
17 -6 16 -8 -1 -205 -50 -439 -110z"/>
<path d="M16709 796 c-2 -2 -25 -6 -50 -9 -26 -3 -55 -9 -64 -14 -33 -19 12
-24 72 -8 32 8 86 15 121 15 39 0 61 4 57 10 -6 9 -127 15 -136 6z"/>
<path d="M16545 750 c-3 -5 -15 -10 -26 -10 -23 0 -122 -54 -113 -62 3 -3 39
9 79 28 41 19 79 34 85 34 6 0 8 5 5 10 -3 6 -10 10 -15 10 -5 0 -12 -4 -15
-10z"/>
<path d="M24520 748 c125 -50 197 -95 270 -167 80 -78 119 -143 156 -251 19
-58 26 -247 11 -303 -6 -23 -4 -27 12 -27 28 0 32 21 30 176 -1 106 -5 155
-19 196 -55 169 -203 324 -335 354 -16 4 -33 11 -36 16 -3 5 -30 10 -60 12
-43 3 -49 2 -29 -6z"/>
<path d="M16360 660 c12 -7 8 -10 -15 -11 -16 0 -24 -3 -17 -6 18 -7 62 5 62
17 0 6 -10 10 -22 10 -19 0 -20 -2 -8 -10z"/>
<path d="M16300 621 c8 -6 12 -11 8 -11 -37 -1 -2001 -564 -2088 -599 -17 -7
264 -10 878 -10 l902 -1 0 36 c0 89 71 276 143 376 24 35 79 96 121 136 42 39
72 72 67 72 -5 0 -18 3 -28 6 -15 5 -15 4 -3 -5z"/>
<path d="M11560 421 c0 -28 4 -52 9 -56 21 -13 36 59 16 78 -8 8 -11 17 -8 21
4 3 1 6 -5 6 -8 0 -12 -18 -12 -49z"/>
<path d="M11545 255 c-9 -52 -32 -131 -50 -175 -32 -80 -32 -80 -10 -80 12 0
28 6 35 14 11 15 38 99 45 143 2 12 6 26 9 32 4 6 9 44 13 86 4 62 3 75 -9 75
-11 0 -20 -26 -33 -95z"/>
<path d="M3398 143 c6 -2 18 -2 25 0 6 3 1 5 -13 5 -14 0 -19 -2 -12 -5z"/>
<path d="M21331 77 c-6 -15 -14 -39 -17 -52 -6 -23 -3 -25 26 -25 30 0 31 1
24 33 -3 17 -10 41 -14 52 -7 18 -9 18 -19 -8z"/>
<path d="M3050 44 c-15 -39 -13 -44 24 -44 29 0 37 5 50 32 9 17 16 33 16 35
0 1 -18 3 -40 3 -34 0 -42 -4 -50 -26z"/>
</g>
</svg>
