<?xml version="1.0" standalone="no"?>
<!DOCTYPE svg PUBLIC "-//W3C//DTD SVG 20010904//EN"
 "http://www.w3.org/TR/2001/REC-SVG-20010904/DTD/svg10.dtd">
<svg version="1.0" xmlns="http://www.w3.org/2000/svg"
 width="2500.000000pt" height="1233.000000pt" viewBox="0 0 2500.000000 1233.000000"
 preserveAspectRatio="xMidYMid meet">

<g transform="translate(0.000000,1233.000000) scale(0.100000,-0.100000)"
fill="#000000" stroke="none">
<path d="M3709 10360 c-148 -24 -302 -112 -388 -224 -224 -291 -141 -697 179
-874 125 -69 315 -96 450 -63 104 25 217 88 294 166 264 263 222 686 -88 893
-127 85 -302 125 -447 102z m0 -164 c7 -8 11 -27 9 -43 -2 -23 -13 -33 -63
-58 -81 -39 -157 -118 -186 -192 -34 -85 -33 -198 3 -275 37 -80 104 -148 183
-187 65 -31 66 -32 63 -69 -3 -35 -5 -37 -36 -35 -52 2 -142 52 -203 113 -61
60 -104 134 -125 215 -55 205 66 436 273 521 69 28 67 28 82 10z m318 -21 c98
-45 196 -155 235 -263 28 -77 29 -206 4 -282 -37 -109 -128 -215 -226 -265
-73 -37 -87 -39 -100 -15 -20 38 -5 64 55 95 119 60 201 194 199 325 -2 129
-81 255 -198 316 -58 30 -75 59 -56 94 14 26 24 25 87 -5z m-159 -148 c2 -25
8 -37 19 -37 40 0 112 -83 99 -116 -10 -26 -69 -17 -98 16 -22 25 -34 30 -70
30 -49 0 -68 -13 -68 -46 0 -31 19 -43 86 -55 125 -23 164 -56 164 -136 0 -51
-30 -98 -80 -123 -27 -14 -40 -27 -40 -41 0 -36 -19 -59 -48 -59 -35 0 -52 17
-52 51 0 22 -6 30 -34 39 -51 16 -83 46 -97 87 -10 32 -9 38 7 50 33 24 62 16
89 -27 24 -38 28 -40 75 -40 37 0 55 5 70 20 41 41 17 73 -68 90 -131 26 -162
49 -170 128 -4 44 -1 52 28 85 18 20 46 41 64 45 25 7 32 14 34 38 4 38 26 54
60 45 22 -6 28 -14 30 -44z"/>
<path d="M860 9349 c-222 -35 -391 -144 -463 -297 -114 -243 47 -519 447 -762
78 -47 289 -154 344 -175 21 -8 62 -23 92 -35 132 -51 400 -126 539 -150 50
-9 70 -9 88 1 29 16 29 26 1 35 -13 3 -30 12 -38 19 -24 20 -130 52 -198 60
-40 4 -65 12 -69 21 -3 8 -9 11 -14 8 -5 -3 -6 1 -3 9 8 22 -17 33 -31 14 -11
-15 -25 -12 -146 34 -74 28 -150 54 -170 58 -19 4 -42 12 -50 17 -8 4 -23 10
-33 11 -11 2 -33 14 -50 27 -17 13 -60 38 -96 56 -49 25 -68 30 -81 22 -19
-12 -29 -6 -29 19 0 15 -35 31 -75 33 -5 1 -15 12 -22 26 -7 14 -18 25 -25 25
-7 0 -15 2 -18 5 -3 3 -19 13 -37 23 -24 13 -33 14 -37 5 -3 -7 -4 1 -2 17 1
17 1 24 -1 18 -5 -15 -23 -17 -23 -3 0 6 -7 10 -15 10 -8 0 -14 6 -12 13 1 6
-6 12 -15 12 -27 0 -34 16 -14 30 10 8 15 18 11 24 -8 14 -35 14 -35 1 0 -5
-8 -10 -17 -10 -13 0 -14 3 -6 11 12 12 -2 42 -38 82 -9 9 -24 42 -35 73 -14
41 -20 50 -25 37 -7 -17 -7 -17 -14 1 -5 11 -3 21 5 26 8 5 10 17 6 33 -7 31
9 155 26 191 6 15 22 29 35 32 19 5 21 9 12 26 -14 27 14 58 53 58 21 0 28 5
28 19 0 29 134 109 210 126 38 9 419 10 427 2 2 -3 18 -1 35 5 21 8 33 7 41
-1 6 -6 26 -11 43 -11 18 0 36 -5 39 -10 4 -6 72 -10 181 -9 107 1 179 -2 186
-9 7 -5 51 -12 98 -14 52 -3 97 -11 116 -21 18 -9 45 -16 60 -16 16 0 123 -4
239 -10 122 -6 213 -7 218 -2 6 6 -15 12 -49 16 -33 4 -76 11 -97 16 -20 6
-42 7 -47 4 -5 -3 -17 -1 -27 5 -19 10 -352 59 -591 85 -366 41 -701 55 -832
34z m-400 -279 c0 -5 -5 -10 -11 -10 -5 0 -7 5 -4 10 3 6 8 10 11 10 2 0 4 -4
4 -10z m-2 -355 c-3 -3 -9 2 -12 12 -6 14 -5 15 5 6 7 -7 10 -15 7 -18z"/>
<path d="M6000 9331 c-47 -11 -177 -52 -290 -91 -207 -72 -348 -115 -430 -129
-51 -9 -137 -30 -160 -38 -8 -4 -19 -5 -24 -4 -17 4 -250 -31 -271 -40 -11 -5
-35 -8 -53 -7 -19 0 -37 -4 -42 -11 -7 -13 -93 -11 -106 2 -9 9 -70 7 -103 -2
-21 -6 -17 -9 31 -24 40 -12 62 -14 87 -7 17 5 72 8 121 6 93 -2 128 6 100 24
-13 8 -12 10 3 10 9 0 17 -4 17 -10 0 -5 10 -10 23 -9 21 0 21 1 2 9 -26 11
-36 10 155 14 91 2 182 7 202 11 39 8 42 24 5 26 -18 1 -16 2 8 10 16 4 32 5
35 0 8 -13 141 8 169 26 13 9 40 18 60 20 46 5 61 11 60 20 -3 20 2 25 15 14
11 -10 33 -6 103 19 48 17 95 33 103 37 8 3 23 5 33 4 9 -1 17 4 17 13 0 11
18 16 68 21 37 4 79 13 93 21 28 14 227 12 238 -3 3 -4 15 -9 26 -10 52 -6 85
-16 85 -27 0 -6 9 -17 20 -24 11 -7 20 -19 20 -27 0 -11 8 -13 28 -9 23 5 30
1 42 -21 13 -24 13 -28 -3 -40 -25 -18 -22 -45 6 -45 26 0 38 -28 52 -118 10
-63 -12 -171 -42 -198 -22 -20 -22 -23 -9 -56 l15 -35 -49 -44 c-47 -41 -63
-69 -40 -69 6 0 10 -5 10 -11 0 -8 -4 -8 -13 -1 -9 8 -23 -2 -57 -39 -24 -27
-52 -49 -62 -49 -10 0 -23 -9 -30 -20 -7 -11 -19 -20 -26 -20 -7 0 -15 -7 -18
-15 -4 -8 -12 -15 -20 -15 -17 0 -18 -12 -2 -28 6 -6 8 -15 3 -19 -4 -5 -10
-2 -12 5 -6 15 -33 16 -33 1 0 -5 -3 -8 -7 -6 -5 2 -19 -6 -31 -18 l-24 -22
21 -20 c20 -19 20 -19 -14 -15 -20 2 -38 8 -41 13 -7 12 -51 11 -59 -1 -3 -5
3 -10 13 -10 32 0 36 -29 6 -40 -14 -6 -32 -10 -41 -10 -8 0 -51 -18 -95 -40
-44 -22 -94 -40 -110 -40 -22 0 -31 -6 -35 -21 -5 -18 -11 -20 -54 -14 -40 6
-49 4 -49 -8 0 -8 8 -18 17 -21 12 -5 13 -10 5 -18 -8 -8 -15 -8 -25 0 -15 13
-29 11 -102 -14 -97 -34 -145 -58 -145 -72 0 -11 -8 -13 -31 -8 -24 4 -35 1
-56 -20 l-26 -26 49 7 c243 33 551 154 794 310 269 174 428 354 486 550 23 77
23 211 0 286 -29 98 -102 193 -180 235 -110 60 -280 78 -426 45z m-220 -121
c0 -5 -7 -7 -15 -4 -8 4 -12 10 -9 15 6 11 24 2 24 -11z m450 -900 c0 -5 -5
-10 -11 -10 -5 0 -7 5 -4 10 3 6 8 10 11 10 2 0 4 -4 4 -10z"/>
<path d="M873 9272 c-36 -5 -27 -22 12 -22 19 0 35 4 35 9 0 12 -20 18 -47 13z"/>
<path d="M1728 9223 c7 -3 16 -2 19 1 4 3 -2 6 -13 5 -11 0 -14 -3 -6 -6z"/>
<path d="M2543 9184 c9 -3 17 -9 17 -12 0 -4 33 -7 73 -8 53 -1 63 1 38 7 -40
8 -154 20 -128 13z"/>
<path d="M2580 9150 c0 -5 7 -10 16 -10 8 0 12 5 9 10 -3 6 -10 10 -16 10 -5
0 -9 -4 -9 -10z"/>
<path d="M2758 9153 c6 -2 18 -2 25 0 6 3 1 5 -13 5 -14 0 -19 -2 -12 -5z"/>
<path d="M2805 9140 c3 -5 25 -10 48 -10 53 0 88 -10 81 -21 -3 -5 10 -7 28
-5 58 6 36 20 -52 32 -110 16 -112 16 -105 4z"/>
<path d="M2728 9133 c7 -3 16 -2 19 1 4 3 -2 6 -13 5 -11 0 -14 -3 -6 -6z"/>
<path d="M3055 9111 c4 -8 2 -16 -5 -21 -9 -5 -9 -9 -1 -14 6 -4 11 -2 11 3 0
6 11 11 25 11 31 0 33 -20 3 -21 -13 -1 -5 -5 17 -9 22 -4 41 -4 43 1 5 12 46
11 58 -1 7 -7 19 -7 35 -1 23 9 23 10 -8 10 -18 1 -33 5 -33 10 0 11 -43 24
-85 26 -16 1 -39 5 -49 10 -15 6 -17 5 -11 -4z m92 -27 c-3 -3 -12 -4 -19 -1
-8 3 -5 6 6 6 11 1 17 -2 13 -5z"/>
<path d="M3217 9090 c10 -9 116 -30 157 -31 30 -1 30 -1 6 -8 -17 -5 11 -11
93 -20 64 -8 117 -17 117 -22 0 -11 83 1 91 13 3 5 18 4 34 -2 31 -12 25 -26
-15 -33 l-25 -4 26 -2 c15 0 40 6 55 14 20 10 23 15 12 15 -10 0 -18 7 -18 15
0 12 -11 16 -47 16 -61 -1 -322 27 -441 47 -29 5 -49 5 -45 2z"/>
<path d="M3288 9053 c7 -3 16 -2 19 1 4 3 -2 6 -13 5 -11 0 -14 -3 -6 -6z"/>
<path d="M3784 9022 c3 -6 32 -11 63 -11 33 0 59 -5 63 -12 5 -6 17 -9 29 -6
12 3 19 2 16 -3 -7 -11 56 -22 69 -12 6 5 24 9 39 10 64 4 61 20 -4 26 -35 3
-71 5 -79 4 -8 0 -57 3 -109 7 -64 5 -92 4 -87 -3z m246 -22 c0 -5 -15 -10
-32 -10 -25 0 -29 3 -18 10 20 13 50 13 50 0z"/>
<path d="M4683 9013 c9 -2 23 -2 30 0 6 3 -1 5 -18 5 -16 0 -22 -2 -12 -5z"/>
<path d="M4148 8998 c9 -9 15 -9 24 0 9 9 7 12 -12 12 -19 0 -21 -3 -12 -12z"/>
<path d="M4220 9000 c0 -11 43 -12 115 0 47 7 45 7 -32 9 -50 0 -83 -3 -83 -9z"/>
<path d="M3795 8990 c-3 -5 3 -10 14 -10 12 0 21 5 21 10 0 6 -6 10 -14 10 -8
0 -18 -4 -21 -10z"/>
<path d="M4398 8983 c12 -2 32 -2 45 0 12 2 2 4 -23 4 -25 0 -35 -2 -22 -4z"/>
<path d="M4488 8983 c7 -3 16 -2 19 1 4 3 -2 6 -13 5 -11 0 -14 -3 -6 -6z"/>
<path d="M2840 8689 c-181 -9 -604 -46 -660 -58 l-35 -7 2 -155 c2 -141 23
-374 41 -459 8 -35 8 -35 74 -42 119 -11 110 0 128 -163 17 -142 68 -456 79
-480 5 -11 19 -69 31 -130 53 -272 170 -536 305 -694 40 -47 46 -59 41 -85 -4
-17 -11 -62 -17 -101 -6 -38 -19 -88 -28 -110 -17 -39 -16 -71 6 -125 3 -8 7
-25 9 -37 5 -39 15 -63 26 -63 6 0 8 14 4 38 -3 20 -8 51 -11 67 -2 17 -8 46
-11 65 -9 41 -6 70 8 87 5 7 6 18 2 25 -9 15 -10 15 133 -88 193 -139 368
-221 553 -260 126 -27 317 -24 440 6 52 12 105 23 118 24 16 1 25 9 28 26 3
14 7 30 9 37 2 7 -3 35 -11 64 -9 28 -14 53 -11 55 2 2 42 14 88 25 161 41
310 126 406 233 123 139 208 345 288 701 15 66 28 122 31 126 2 3 33 9 68 11
72 6 203 63 268 117 60 51 114 141 128 215 10 56 10 72 -5 115 -25 75 -64 121
-144 169 -61 36 -83 43 -138 47 -36 2 -67 6 -69 7 -1 2 4 46 12 98 16 105 40
488 31 496 -9 9 -170 43 -179 38 -4 -3 -15 0 -25 5 -26 15 -362 73 -613 106
-444 58 -942 77 -1400 54z m425 -380 c53 -21 76 -24 195 -23 118 1 145 4 214
27 43 15 82 24 87 22 4 -3 5 -20 3 -38 -8 -44 28 -93 89 -125 40 -21 63 -25
135 -26 134 -2 230 5 311 22 123 25 304 -2 361 -53 20 -18 51 -20 68 -3 17 17
15 53 -5 70 -26 23 -93 54 -133 63 -56 12 -55 16 7 45 33 16 90 49 127 75 37
25 71 43 76 40 5 -3 6 -21 3 -39 -13 -82 36 -396 73 -468 20 -38 18 -83 -12
-226 -52 -255 -128 -435 -226 -534 -33 -34 -64 -58 -74 -56 -8 2 -23 25 -33
53 -44 125 -139 258 -209 294 -47 24 -155 48 -255 57 -74 7 -77 8 -61 25 9 10
22 46 30 81 15 72 19 314 5 351 -13 33 -39 41 -68 22 -21 -14 -23 -21 -18 -63
10 -71 7 -218 -6 -299 -9 -54 -9 -76 0 -86 9 -12 -22 -15 -196 -20 -222 -6
-347 -23 -417 -59 -59 -30 -136 -112 -195 -210 l-54 -87 -37 19 c-107 55 -228
210 -274 354 -27 83 -62 263 -72 376 l-7 67 54 44 c138 113 273 275 317 379
25 62 29 63 85 5 36 -36 71 -60 112 -76z m270 -1014 c117 -85 212 -116 380
-124 128 -6 130 -6 133 -30 6 -41 -21 -51 -132 -51 -124 0 -206 19 -311 70
-77 37 -165 102 -165 121 0 17 41 50 53 43 7 -4 26 -17 42 -29z"/>
<path d="M3220 8229 c-80 -9 -190 -41 -227 -65 -29 -18 -30 -59 -3 -74 16 -8
39 -5 103 15 101 33 245 43 341 25 74 -14 96 -6 96 36 0 34 -34 51 -115 59
-38 3 -81 8 -95 9 -14 2 -59 0 -100 -5z"/>
<path d="M3277 7900 c-80 -63 -11 -189 91 -164 52 13 79 61 63 114 -6 22 -21
46 -34 55 -30 21 -89 19 -120 -5z"/>
<path d="M4395 7894 c-38 -41 -35 -104 6 -138 51 -43 117 -29 148 31 19 37 13
73 -18 104 -40 40 -101 41 -136 3z"/>
<path d="M1961 7927 c-6 -8 -8 -17 -4 -20 11 -12 21 -7 26 13 6 23 -5 26 -22
7z"/>
<path d="M1966 7874 c-8 -21 -4 -25 14 -14 11 7 12 12 4 20 -8 8 -13 7 -18 -6z"/>
<path d="M1906 7798 c-97 -195 100 -449 376 -482 97 -12 82 22 -32 68 -35 15
-71 24 -79 21 -9 -3 -12 -3 -8 2 5 4 -9 12 -29 18 -46 13 -54 30 -17 40 l28 7
-29 11 c-22 7 -31 7 -34 -1 -2 -7 -14 -12 -26 -12 -18 0 -23 6 -23 28 0 40
-12 82 -23 82 -6 0 -10 -7 -10 -16 0 -23 -24 -11 -28 14 -2 15 2 22 12 22 22
0 20 26 -5 60 -16 21 -23 48 -27 105 -2 41 -8 78 -12 80 -5 3 -20 -18 -34 -47z"/>
<path d="M2012 7790 c0 -14 2 -19 5 -12 2 6 2 18 0 25 -3 6 -5 1 -5 -13z"/>
<path d="M14520 7551 c-36 -29 -615 -461 -820 -611 -194 -143 -259 -197 -388
-324 -252 -247 -464 -575 -587 -909 -30 -81 -110 -357 -165 -566 -10 -37 -14
-42 -33 -38 -12 3 -51 13 -87 22 -59 16 -103 16 -203 2 -16 -2 -19 7 -21 83
-4 120 -32 187 -110 266 -81 82 -147 108 -258 102 -278 -16 -457 -302 -392
-627 6 -28 5 -28 -54 -34 -33 -4 -90 -16 -126 -28 l-66 -22 -47 45 c-62 57
-140 95 -241 116 -68 14 -93 14 -159 5 -43 -6 -99 -21 -125 -32 l-47 -20 -22
39 c-55 98 -189 144 -305 104 l-47 -16 -59 66 c-317 351 -831 381 -1177 70
l-51 -46 -28 21 c-16 11 -50 26 -75 33 -87 23 -203 -23 -243 -97 -10 -19 -19
-35 -20 -35 0 0 -15 7 -32 15 -47 24 -135 35 -194 25 -102 -16 -165 -47 -239
-119 -38 -36 -69 -73 -69 -82 0 -13 18 -17 98 -23 102 -7 784 -72 1127 -106
110 -12 288 -30 395 -40 107 -11 233 -25 280 -30 47 -5 171 -19 275 -30 105
-12 307 -34 450 -50 143 -16 289 -32 325 -36 92 -9 96 -13 102 -86 6 -68 40
-149 77 -182 32 -29 26 -40 -30 -59 -64 -23 -123 -76 -157 -141 -22 -43 -26
-64 -26 -136 -1 -75 3 -93 30 -150 33 -69 57 -99 116 -144 l37 -28 -20 -39
c-23 -45 -43 -139 -32 -150 5 -4 109 -1 233 6 719 43 2000 91 2650 100 212 3
545 10 740 16 195 5 744 13 1220 17 476 4 827 9 780 12 -82 5 -85 6 -88 30 -2
14 -6 305 -9 648 l-5 622 1129 -2 1128 -3 210 -61 c116 -34 278 -80 360 -103
83 -23 197 -55 255 -71 398 -112 663 -186 775 -216 72 -20 159 -46 195 -58
l65 -21 -1114 -5 -1113 -5 -2 -393 c-1 -385 -1 -393 19 -397 11 -2 234 -9 495
-15 484 -11 846 -22 1275 -40 132 -6 364 -15 515 -20 151 -6 300 -12 330 -15
30 -3 231 -14 445 -25 215 -12 566 -32 780 -45 215 -14 448 -27 519 -30 70 -3
132 -7 136 -10 4 -3 57 -7 116 -10 194 -9 537 -36 597 -46 31 -5 61 -8 65 -5
6 3 237 -16 452 -38 19 -2 78 -7 130 -10 52 -3 205 -17 340 -31 135 -13 257
-25 273 -25 l27 0 0 905 c0 853 -1 906 -17 913 -10 4 -48 7 -85 7 l-68 0 0 45
c0 71 -17 115 -65 168 -50 56 -128 95 -181 90 -39 -3 -40 0 -17 67 24 69 21
192 -5 267 -75 209 -275 318 -485 263 -102 -26 -176 -73 -234 -148 l-22 -28
-51 17 c-66 21 -134 14 -201 -23 -54 -29 -106 -83 -115 -120 -8 -31 -19 -29
-67 12 -59 51 -141 86 -225 99 -216 31 -403 -90 -468 -303 -21 -69 -18 -190 6
-258 26 -75 26 -83 -4 -75 -17 5 -131 150 -377 480 l-353 472 -341 0 -341 0
-71 108 c-94 140 -205 272 -340 403 -126 122 -186 168 -781 612 l-440 327
-2548 -1 -2549 0 -35 -28z m465 -299 c-3 -3 -11 0 -18 7 -9 10 -8 11 6 5 10
-3 15 -9 12 -12z m39 -27 c16 -12 17 -18 8 -27 -9 -9 -12 -8 -12 5 0 9 -8 21
-17 26 -10 6 -13 10 -8 10 6 0 19 -6 29 -14z m46 -35 c0 -5 -2 -10 -4 -10 -3
0 -8 5 -11 10 -3 6 -1 10 4 10 6 0 11 -4 11 -10z m110 -91 c0 -5 -5 -9 -11 -9
-5 0 -7 5 -3 12 5 8 2 9 -10 5 -10 -4 -15 -3 -11 3 4 6 -7 18 -24 28 -17 9
-33 22 -35 29 -3 7 17 -4 44 -23 28 -20 50 -40 50 -45z m66 -44 c10 -8 15 -14
9 -14 -5 0 -19 6 -29 14 -11 8 -15 15 -10 15 6 0 19 -7 30 -15z m88 -64 c4 -5
-3 -7 -13 -4 -11 3 -22 11 -25 19 -4 11 -2 12 14 4 10 -5 21 -14 24 -19z m82
-62 c19 -22 19 -22 -3 -10 -13 6 -23 16 -23 21 0 15 5 12 26 -11z m43 -33 c9
-11 9 -16 -1 -22 -7 -4 -10 -4 -6 1 4 4 3 14 -3 22 -6 7 -9 13 -6 13 2 0 10
-6 16 -14z m31 -26 c0 -5 -5 -10 -11 -10 -5 0 -7 5 -4 10 3 6 8 10 11 10 2 0
4 -4 4 -10z m-780 -265 l0 -255 -205 0 -205 0 0 255 0 255 205 0 205 0 0 -255z
m901 178 c13 -16 12 -17 -3 -4 -10 7 -18 15 -18 17 0 8 8 3 21 -13z m76 -63
c18 -16 30 -30 26 -30 -10 0 -78 60 -68 60 4 0 23 -13 42 -30z m-52 -10 c3 -6
-1 -7 -9 -4 -18 7 -21 14 -7 14 6 0 13 -4 16 -10z m140 -70 c21 -22 37 -41 34
-43 -2 -3 -24 15 -48 39 -24 24 -39 44 -34 44 5 0 26 -18 48 -40z m111 -127
c-3 -4 -13 2 -21 13 -22 29 -18 41 6 15 12 -12 18 -25 15 -28z m108 -122 c-4
-4 -31 24 -70 75 -43 56 -25 47 25 -13 27 -32 47 -60 45 -62z m31 -31 c3 -5 1
-10 -4 -10 -6 0 -11 5 -11 10 0 6 2 10 4 10 3 0 8 -4 11 -10z m117 -175 c11
-20 11 -20 -11 -1 -11 11 -21 26 -21 35 0 14 2 14 10 1 6 -8 16 -24 22 -35z
m96 -160 c-3 -3 -9 2 -12 12 -6 14 -5 15 5 6 7 -7 10 -15 7 -18z m40 -80 c-3
-3 -9 2 -12 12 -6 14 -5 15 5 6 7 -7 10 -15 7 -18z m52 -108 c0 -18 -2 -19
-10 -7 -13 20 -13 43 0 35 6 -3 10 -16 10 -28z m-1848 -132 c49 -83 58 -106
54 -135 -5 -42 -195 -386 -232 -421 -23 -22 -36 -24 -130 -27 -58 -2 -116 -1
-128 2 -32 8 -38 38 -16 78 78 144 325 577 338 591 31 34 53 17 114 -88z
m1902 4 c10 -25 12 -39 4 -50 -8 -12 -9 -11 -5 2 3 9 2 20 -2 25 -9 10 -26 72
-17 63 3 -3 12 -21 20 -40z m50 -169 c5 -23 4 -30 -2 -20 -6 8 -13 31 -16 50
-5 23 -4 30 2 20 6 -8 13 -31 16 -50z m-1732 -222 c31 -51 63 -108 73 -127 17
-34 17 -35 -5 -53 -19 -15 -41 -18 -142 -18 -126 0 -158 8 -158 41 0 20 98
196 128 232 29 33 48 20 104 -75z m1786 37 c-3 -3 -9 2 -12 12 -6 14 -5 15 5
6 7 -7 10 -15 7 -18z m6267 -225 c3 -5 1 -10 -4 -10 -6 0 -11 5 -11 10 0 6 2
10 4 10 3 0 8 -4 11 -10z m85 -54 c0 -18 -28 -41 -38 -31 -4 4 -1 10 6 12 6 3
12 11 12 19 0 8 5 14 10 14 6 0 10 -6 10 -14z m12 -106 c3 -16 1 -35 -4 -42
-4 -8 -8 4 -8 30 0 49 6 55 12 12z m-1064 -302 l2 -228 -95 0 -95 0 0 230 0
231 93 -3 92 -3 3 -227z m782 2 l0 -231 -92 3 -93 3 -3 215 c-1 118 0 220 2
227 4 9 32 13 96 13 l90 0 0 -230z m-9310 -180 l0 -260 -202 2 -203 3 -3 245
c-1 134 0 250 3 257 3 10 52 13 205 13 l200 0 0 -260z m2770 0 l0 -260 -202 2
-203 3 -3 245 c-1 134 0 250 3 257 3 10 52 13 205 13 l200 0 0 -260z m7970 56
c0 -3 -4 -8 -10 -11 -5 -3 -10 -1 -10 4 0 6 5 11 10 11 6 0 10 -2 10 -4z
m-1140 -247 c0 -24 -4 -38 -10 -34 -5 3 -10 24 -10 46 0 24 4 38 10 34 6 -3
10 -24 10 -46z m-3830 -209 l0 -231 -92 3 -93 3 -2 219 c-1 121 0 223 3 228 3
4 45 8 95 8 l89 0 0 -230z m490 0 l0 -231 -92 3 -93 3 -3 195 c-2 107 0 210 3
228 l6 32 89 0 90 0 0 -230z m490 0 l0 -231 -92 3 -93 3 -3 155 c-2 85 0 188
3 228 l7 72 89 0 89 0 0 -230z m510 0 l0 -231 -92 3 -93 3 -3 215 c-1 118 0
220 2 227 4 9 32 13 96 13 l90 0 0 -230z m2367 203 c-4 -3 -1 -13 6 -22 11
-14 10 -14 -5 -2 -21 15 -23 31 -6 31 6 0 8 -3 5 -7z m-7930 -310 c-1 -54 -3
-12 -3 92 0 105 2 149 3 98 2 -51 2 -136 0 -190z m7938 127 c14 -5 25 -16 25
-25 0 -19 -19 -20 -26 0 -9 22 -34 -7 -34 -39 0 -14 -4 -26 -10 -26 -11 0 -14
123 -3 134 4 4 11 -2 15 -14 4 -11 19 -25 33 -30z m-1110 -195 l0 -230 -90 0
-90 0 -3 220 c-1 121 0 225 3 233 3 9 27 12 92 10 l88 -3 0 -230z m780 0 l0
-230 -90 0 -90 0 -3 220 c-1 121 0 225 3 233 3 9 27 12 92 10 l88 -3 0 -230z"/>
<path d="M14360 6600 l0 -190 145 0 145 0 0 190 0 190 -145 0 -145 0 0 -190z"/>
<path d="M21640 4670 l0 -170 55 0 55 0 0 170 0 170 -55 0 -55 0 0 -170z"/>
<path d="M22420 4670 l0 -170 60 0 60 0 -2 168 -3 167 -57 3 -58 3 0 -171z"/>
<path d="M12917 4674 c-4 -4 -7 -90 -7 -191 l0 -184 148 3 147 3 0 185 0 185
-141 3 c-77 1 -143 -1 -147 -4z"/>
<path d="M15680 4490 l0 -191 148 3 147 3 0 185 0 185 -147 3 -148 3 0 -191z"/>
<path d="M18880 4090 l0 -171 58 3 57 3 0 165 0 165 -57 3 -58 3 0 -171z"/>
<path d="M19370 4090 l0 -171 58 3 57 3 0 165 0 165 -57 3 -58 3 0 -171z"/>
<path d="M19860 4090 l0 -171 58 3 57 3 0 165 0 165 -57 3 -58 3 0 -171z"/>
<path d="M20370 4090 l0 -171 58 3 57 3 0 165 0 165 -57 3 -58 3 0 -171z"/>
<path d="M21640 3915 l0 -175 55 0 55 0 0 175 0 175 -55 0 -55 0 0 -175z"/>
<path d="M22425 4078 c-3 -8 -4 -86 -3 -173 l3 -160 55 0 55 0 0 170 0 170
-53 3 c-37 2 -54 -1 -57 -10z"/>
<path d="M2360 7340 c0 -5 7 -10 16 -10 8 0 12 5 9 10 -3 6 -10 10 -16 10 -5
0 -9 -4 -9 -10z"/>
<path d="M264 6160 c-77 -20 -179 -67 -231 -108 l-33 -24 0 -369 0 -369 448 1
447 0 49 62 c63 79 183 186 286 254 73 49 223 129 288 154 l27 11 -23 18 c-58
47 -227 86 -322 75 -48 -6 -133 -29 -182 -50 -13 -5 -23 5 -44 47 -38 76 -162
195 -251 241 -144 75 -312 96 -459 57z"/>
<path d="M2859 5962 c-8 -52 -6 -79 10 -115 11 -23 22 -55 26 -72 3 -16 17
-52 29 -80 13 -27 29 -65 36 -82 14 -38 25 -42 33 -12 4 13 -2 28 -15 41 -12
12 -25 42 -30 67 -4 25 -13 48 -18 49 -6 2 -10 15 -10 28 0 14 -7 27 -15 30
-9 4 -15 19 -15 35 0 16 -4 29 -10 29 -16 0 -12 28 5 38 9 5 13 15 10 24 -7
17 -34 32 -36 20z"/>
<path d="M4092 5900 c0 -14 2 -19 5 -12 2 6 2 18 0 25 -3 6 -5 1 -5 -13z"/>
<path d="M2927 5873 c-13 -13 -7 -53 8 -53 8 0 15 8 15 18 0 22 -14 44 -23 35z"/>
<path d="M4060 5808 c0 -32 -42 -128 -67 -156 -15 -16 -17 -38 -3 -47 5 -3 7
-25 3 -50 -3 -25 -2 -45 3 -45 14 0 34 74 35 127 0 35 3 42 8 28 7 -17 10 -14
20 21 9 35 31 139 31 150 0 2 -7 4 -15 4 -10 0 -15 -10 -15 -32z"/>
<path d="M2950 5781 c0 -11 5 -23 10 -26 6 -3 10 3 10 14 0 11 -4 23 -10 26
-5 3 -10 -3 -10 -14z"/>
<path d="M3037 5591 c-3 -13 -13 -21 -27 -21 -18 0 -20 -4 -14 -22 3 -13 15
-35 25 -50 11 -14 19 -31 19 -36 0 -6 6 -17 13 -24 6 -7 21 -30 32 -50 11 -21
26 -38 34 -38 8 0 11 -3 8 -7 -6 -5 28 -70 43 -83 3 -3 17 -21 30 -40 42 -60
46 -62 64 -35 18 27 22 70 6 60 -6 -4 -8 -16 -4 -27 5 -17 3 -19 -17 -13 -46
15 -60 65 -18 65 10 0 19 5 19 11 0 7 -9 9 -21 6 -27 -7 -84 46 -95 88 -4 16
-18 40 -31 53 -12 12 -23 32 -23 42 0 13 -7 20 -19 20 -29 0 -31 10 -14 59 9
27 11 47 5 53 -6 6 -11 2 -15 -11z"/>
<path d="M3930 5527 c0 -18 -5 -38 -12 -45 -9 -9 -9 -18 0 -37 15 -33 15 -35
-3 -35 -8 0 -15 -9 -15 -20 0 -12 -7 -35 -16 -52 -18 -34 -21 -39 -59 -83 -19
-21 -24 -36 -20 -53 5 -22 4 -24 -21 -18 -21 6 -25 4 -21 -8 3 -8 -1 -29 -10
-47 l-16 -32 -17 23 c-11 15 -19 19 -24 11 -4 -6 0 -14 8 -17 9 -3 16 -15 16
-25 0 -10 4 -19 9 -19 10 0 81 82 81 94 0 3 20 34 44 69 43 61 136 237 136
257 0 5 -7 10 -15 10 -9 0 -15 -9 -15 -25 0 -16 -6 -25 -15 -25 -19 0 -20 27
-1 45 14 15 10 65 -5 65 -5 0 -9 -15 -9 -33z"/>
<path d="M3287 5143 c-9 -15 10 -46 58 -92 29 -28 37 -31 50 -21 8 7 12 16 9
21 -3 5 0 9 6 9 6 0 9 4 5 10 -3 6 -15 5 -30 -2 -33 -15 -42 -4 -28 32 9 24 9
30 -2 30 -8 0 -17 -4 -20 -10 -11 -18 -34 -10 -37 13 -2 15 -6 18 -11 10z"/>
<path d="M3650 5070 c0 -5 5 -10 10 -10 6 0 10 -9 10 -19 0 -31 19 -35 40 -9
18 23 18 23 -3 26 -12 2 -26 8 -31 13 -13 12 -26 11 -26 -1z"/>
<path d="M1496 5061 c-4 -5 30 -110 74 -232 73 -200 127 -373 160 -514 18 -75
24 -530 11 -750 -7 -104 -23 -337 -37 -517 -29 -388 -30 -428 -9 -428 19 0 19
4 50 435 41 579 45 656 45 885 0 248 -9 335 -51 497 -27 104 -130 410 -192
567 -22 58 -39 77 -51 57z"/>
<path d="M5333 5045 c-3 -9 0 -86 6 -173 22 -308 31 -573 31 -972 0 -369 -5
-628 -29 -1425 -5 -170 -5 -279 1 -295 10 -24 10 -24 18 -4 5 13 36 33 87 54
205 89 377 198 586 370 54 44 67 61 67 84 0 32 -28 147 -39 158 -4 5 -137 -37
-296 -93 -323 -112 -385 -132 -391 -126 -2 2 0 80 6 173 6 93 14 270 18 394
l7 225 31 45 c99 145 284 491 284 533 0 27 -29 20 -41 -10 -26 -69 -157 -316
-210 -398 l-59 -90 0 380 c0 462 -23 1045 -46 1158 -6 30 -21 36 -31 12z"/>
<path d="M3620 4985 c0 -8 -4 -15 -10 -15 -5 0 -10 -6 -10 -12 -1 -31 -15 -38
-48 -26 -42 16 -41 28 5 28 60 0 28 13 -38 15 l-60 2 25 -21 c13 -12 26 -29
28 -40 2 -13 13 -19 36 -21 27 -2 41 5 78 41 50 50 55 64 19 64 -16 0 -25 -6
-25 -15z"/>
<path d="M3436 4973 c-6 -14 -5 -15 5 -6 7 7 10 15 7 18 -3 3 -9 -2 -12 -12z"/>
<path d="M3526 4803 c-16 -182 -51 -756 -65 -1093 -6 -129 -13 -295 -17 -367
-5 -129 -1 -151 23 -120 6 6 16 131 22 277 15 335 58 1100 71 1244 10 112 8
126 -15 126 -9 0 -15 -21 -19 -67z"/>
<path d="M17054 4814 c2 -10 8 -20 14 -22 7 -2 10 -7 7 -12 -6 -10 62 -23 75
-15 6 3 10 1 10 -4 0 -6 -7 -11 -15 -11 -8 0 -15 -4 -15 -9 0 -4 23 -9 52 -10
28 0 56 -5 62 -11 5 -5 18 -10 27 -10 9 0 22 -7 29 -15 7 -8 24 -15 39 -15 14
0 39 -7 55 -15 15 -8 38 -15 50 -15 11 0 50 -9 86 -20 36 -11 80 -20 98 -20
20 0 31 -5 30 -12 -2 -7 6 -13 17 -13 11 0 29 -5 40 -11 22 -13 97 -30 165
-40 25 -3 63 -14 85 -24 51 -23 193 -62 214 -58 9 1 29 -6 44 -16 33 -23 187
-30 187 -9 0 6 5 13 11 15 11 4 -111 42 -286 89 -44 12 -120 33 -170 46 -49
14 -112 31 -140 38 -59 15 -243 68 -335 96 -36 10 -141 40 -235 65 -93 26
-178 49 -187 51 -11 4 -16 0 -14 -13z m76 -28 c0 -3 -4 -8 -10 -11 -5 -3 -10
-1 -10 4 0 6 5 11 10 11 6 0 10 -2 10 -4z"/>
<path d="M3636 4619 c-35 -27 -37 -90 -4 -113 53 -37 118 -5 118 58 0 37 -36
76 -70 76 -10 0 -29 -9 -44 -21z"/>
<path d="M106 4344 c-21 -7 -53 -23 -72 -35 l-34 -21 0 -449 0 -449 233 2 232
3 36 180 c19 99 38 195 42 213 8 39 -6 41 -70 12 -24 -10 -43 -18 -43 -17 0 1
9 26 20 55 42 111 36 239 -18 351 -63 136 -201 201 -326 155z"/>
<path d="M2442 3857 c-31 -33 -30 -90 3 -122 30 -31 47 -31 81 -1 37 31 38 84
4 121 -29 31 -60 32 -88 2z"/>
<path d="M4726 3848 c-24 -34 -20 -85 9 -113 13 -14 31 -25 40 -25 28 0 65 46
65 82 0 49 -24 78 -65 78 -24 0 -39 -7 -49 -22z"/>
<path d="M17040 3702 c19 -2 40 -8 45 -14 7 -7 -15 -8 -72 -3 -57 4 -83 3 -83
-4 0 -8 68 -9 233 -4 263 9 342 9 547 -2 123 -6 149 -5 175 9 28 15 18 16
-180 17 -115 0 -320 1 -455 2 -135 1 -229 1 -210 -1z"/>
<path d="M17968 3693 c12 -2 30 -2 40 0 9 3 -1 5 -23 4 -22 0 -30 -2 -17 -4z"/>
<path d="M18048 3673 c12 -2 32 -2 45 0 12 2 2 4 -23 4 -25 0 -35 -2 -22 -4z"/>
<path d="M4065 3630 c-4 -6 5 -10 20 -10 15 0 24 4 20 10 -3 6 -12 10 -20 10
-8 0 -17 -4 -20 -10z"/>
<path d="M3998 3602 c-11 -5 -14 -12 -9 -21 7 -10 13 -11 30 -2 39 21 21 40
-21 23z"/>
<path d="M4120 3601 c0 -10 120 -22 134 -14 5 4 1 10 -10 14 -27 11 -124 11
-124 0z"/>
<path d="M4387 3534 c-12 -12 -8 -26 6 -21 6 2 20 0 30 -5 21 -11 80 -1 72 12
-3 5 -13 9 -23 8 -9 0 -31 3 -47 7 -17 3 -33 3 -38 -1z"/>
<path d="M3854 3518 c-4 -6 -2 -14 4 -16 7 -2 19 -10 26 -18 8 -8 17 -14 20
-14 12 0 6 32 -8 46 -18 17 -32 18 -42 2z"/>
<path d="M3565 3508 c-51 -27 -59 -75 -20 -114 36 -36 94 -31 113 9 19 40 7
84 -28 102 -34 18 -39 18 -65 3z"/>
<path d="M3787 3467 c-15 -23 -14 -23 14 -19 20 3 29 10 29 23 0 26 -25 24
-43 -4z"/>
<path d="M4580 3470 c0 -13 28 -25 38 -16 3 4 0 11 -8 16 -20 13 -30 12 -30 0z"/>
<path d="M4668 3433 c7 -3 16 -2 19 1 4 3 -2 6 -13 5 -11 0 -14 -3 -6 -6z"/>
<path d="M3730 3420 c0 -5 5 -10 10 -10 6 0 10 5 10 10 0 6 -4 10 -10 10 -5 0
-10 -4 -10 -10z"/>
<path d="M4710 3400 c0 -5 7 -10 16 -10 8 0 12 5 9 10 -3 6 -10 10 -16 10 -5
0 -9 -4 -9 -10z"/>
<path d="M4766 3371 c-3 -4 6 -13 19 -19 14 -7 25 -8 25 -4 0 12 -39 32 -44
23z"/>
<path d="M4700 3344 c0 -8 5 -12 10 -9 6 4 8 11 5 16 -9 14 -15 11 -15 -7z"/>
<path d="M4826 3316 c6 -16 34 -30 42 -21 8 7 -19 35 -34 35 -7 0 -11 -6 -8
-14z"/>
<path d="M4745 3300 c3 -5 10 -10 16 -10 5 0 9 5 9 10 0 6 -7 10 -16 10 -8 0
-12 -4 -9 -10z"/>
<path d="M4887 3283 c-14 -13 -6 -33 13 -33 11 0 20 4 20 9 0 13 -26 32 -33
24z"/>
<path d="M4617 3263 c-14 -14 -6 -43 16 -54 30 -16 132 -104 181 -158 50 -53
126 -160 126 -177 0 -7 3 -14 8 -16 15 -6 71 -145 91 -223 11 -44 23 -111 26
-150 4 -38 9 -78 11 -87 7 -24 41 -23 49 2 14 44 -20 227 -64 349 -58 159
-136 276 -263 396 -120 113 -160 140 -181 118z"/>
<path d="M3477 3205 c-11 -15 -13 -26 -7 -30 15 -9 40 14 40 36 0 25 -11 23
-33 -6z"/>
<path d="M4937 3223 c-21 -20 16 -60 41 -44 9 5 6 14 -11 29 -13 12 -27 19
-30 15z"/>
<path d="M3410 3170 c-12 -8 -11 -10 8 -10 12 0 22 5 22 10 0 13 -11 13 -30 0z"/>
<path d="M5012 3134 c2 -15 9 -29 16 -30 7 -1 8 0 3 2 -5 3 -7 13 -4 23 3 10
0 22 -7 26 -8 5 -11 -2 -8 -21z"/>
<path d="M3347 3136 c-13 -10 -15 -15 -5 -19 16 -5 48 10 48 23 0 14 -22 12
-43 -4z"/>
<path d="M7812 3130 c-153 -55 -242 -184 -242 -351 0 -97 30 -168 102 -242 45
-46 56 -63 47 -73 -15 -18 -4 -32 38 -49 38 -16 264 -21 357 -9 56 8 78 35 52
63 -21 24 -21 24 23 70 80 83 121 216 96 310 -29 110 -79 186 -159 240 -90 61
-213 78 -314 41z m55 -97 c4 -10 -2 -23 -18 -35 -78 -60 -103 -85 -120 -122
-24 -52 -24 -130 0 -182 18 -40 94 -114 117 -114 15 0 28 -35 19 -50 -11 -17
-39 -11 -87 19 -84 53 -130 137 -131 238 -1 87 43 174 114 226 55 39 96 47
106 20z m216 -12 c98 -63 149 -198 117 -311 -16 -59 -67 -128 -117 -160 -58
-37 -93 -40 -93 -7 0 17 14 32 52 57 71 47 103 104 103 185 0 81 -32 138 -103
185 -38 25 -52 40 -52 57 0 33 35 30 93 -6z m-123 -68 c3 -12 17 -31 33 -43
36 -29 38 -70 2 -70 -14 0 -28 6 -31 14 -13 33 -74 29 -74 -4 0 -13 9 -22 28
-26 96 -21 114 -35 114 -90 0 -36 -33 -84 -58 -84 -7 0 -14 -10 -16 -22 -5
-34 -55 -38 -63 -6 -4 13 -21 32 -38 43 -20 13 -33 30 -35 46 -4 37 23 45 53
15 30 -30 45 -35 73 -25 37 14 28 46 -15 58 -21 6 -44 11 -51 11 -24 0 -62 48
-62 77 1 32 15 55 48 72 12 6 22 17 22 24 0 39 60 48 70 10z"/>
<path d="M5060 3091 c0 -5 5 -13 10 -16 6 -3 10 -2 10 4 0 5 -4 13 -10 16 -5
3 -10 2 -10 -4z"/>
<path d="M4320 3066 c0 -18 10 -29 43 -46 103 -54 229 -160 318 -270 89 -110
189 -311 205 -410 11 -65 54 -81 54 -20 0 45 -55 202 -101 287 -96 180 -230
323 -406 437 -82 53 -113 59 -113 22z"/>
<path d="M5090 3038 c0 -9 5 -20 10 -23 13 -8 13 5 0 25 -8 13 -10 13 -10 -2z"/>
<path d="M3109 3029 c-17 -10 31 -19 54 -9 12 5 20 10 17 11 -14 5 -62 4 -71
-2z"/>
<path d="M3047 3003 c-12 -11 -8 -23 7 -23 7 0 19 7 26 15 10 12 9 15 -7 15
-11 0 -23 -3 -26 -7z"/>
<path d="M5110 2972 c0 -34 14 -43 24 -15 4 9 0 23 -9 32 -13 14 -15 12 -15
-17z"/>
<path d="M10172 2975 c-109 -34 -186 -99 -237 -201 -27 -54 -30 -68 -30 -159
0 -89 3 -106 28 -156 15 -31 45 -77 67 -102 l41 -46 -35 -3 c-27 -2 -33 -6
-27 -17 5 -8 23 -14 40 -15 31 -1 40 -10 21 -21 -5 -3 -10 -12 -9 -18 0 -9 2
-9 5 -1 5 13 34 8 74 -13 15 -8 19 -13 10 -14 -8 -1 -4 -4 10 -9 l25 -7 -28
-8 c-32 -8 -119 -62 -155 -94 -12 -12 -25 -21 -28 -21 -3 0 -14 -10 -23 -22
l-18 -21 -149 22 c-82 12 -187 28 -234 36 -533 86 -1020 157 -1730 255 -238
33 -290 46 -290 70 0 15 -38 50 -64 60 -47 18 -232 33 -326 26 -119 -8 -140
-13 -133 -33 7 -17 -38 -15 -272 13 -181 21 -505 54 -538 54 -26 0 -29 -3 -23
-22 4 -13 36 -135 71 -272 35 -136 65 -250 67 -251 2 -2 86 -17 188 -34 229
-38 256 -46 263 -71 3 -11 1 -20 -5 -20 -5 0 -2 -10 6 -22 9 -12 16 -40 16
-61 0 -34 8 -47 57 -98 31 -32 62 -59 68 -59 16 0 50 -31 58 -52 4 -11 17 -18
32 -18 14 0 25 -6 25 -14 0 -26 180 -35 355 -17 61 6 113 11 117 11 7 0 38 57
38 70 0 4 18 26 40 48 23 22 40 49 40 62 0 16 4 20 16 16 8 -3 12 -2 9 3 -16
27 31 20 527 -74 742 -141 1308 -253 1403 -277 l49 -13 -2 -85 c-3 -70 1 -92
17 -125 12 -21 21 -52 21 -67 0 -16 7 -31 15 -34 8 -3 17 -15 21 -27 13 -42
114 -155 178 -201 69 -49 73 -55 55 -73 -15 -15 -2 -33 24 -33 42 0 66 -12 69
-34 3 -20 10 -21 143 -29 133 -8 460 4 560 22 36 6 40 9 40 36 1 20 6 31 18
33 9 2 17 12 17 22 0 10 6 21 13 23 7 3 4 6 -6 6 -10 1 -15 6 -12 11 4 6 15 8
25 5 31 -10 152 117 176 185 l20 55 44 -2 c47 -1 110 -14 540 -113 652 -150
1795 -431 1856 -456 25 -11 32 -18 27 -32 -4 -9 -11 -20 -15 -23 -14 -9 2 -79
18 -79 8 0 14 -5 14 -11 0 -5 -4 -8 -8 -5 -4 2 -14 1 -22 -4 -12 -8 -11 -25 7
-117 11 -59 27 -130 35 -158 l14 -50 167 -3 c92 -1 167 -1 167 1 0 3 -11 25
-25 50 -64 114 -101 283 -92 417 21 285 189 541 437 665 146 73 170 69 170
-26 l0 -58 -87 -45 c-146 -76 -229 -157 -296 -291 -47 -96 -67 -183 -67 -296
0 -143 45 -284 122 -381 l30 -38 209 0 c174 0 209 2 209 14 0 9 -20 20 -50 29
-93 27 -161 95 -176 175 -10 50 5 66 59 70 58 4 84 -9 92 -47 3 -16 17 -41 31
-54 57 -57 209 -47 243 17 7 12 11 42 9 66 -4 60 -29 75 -169 104 -64 13 -135
34 -157 45 -116 59 -137 234 -38 330 18 17 60 43 92 56 l59 24 3 53 c2 29 8
58 14 65 15 19 103 17 122 -3 11 -10 16 -34 16 -69 0 -53 0 -54 38 -65 72 -24
122 -73 147 -148 20 -56 6 -72 -60 -72 -53 0 -56 1 -79 39 -37 57 -61 71 -129
71 -61 0 -110 -18 -121 -45 -12 -31 -6 -83 12 -104 16 -20 66 -35 203 -61 76
-15 137 -47 173 -93 25 -31 31 -49 34 -101 2 -36 -1 -81 -8 -101 -23 -70 -104
-140 -182 -159 -16 -3 -28 -13 -28 -21 0 -13 31 -15 213 -15 l212 0 32 48 c77
115 113 235 113 372 0 245 -132 465 -342 569 -46 23 -91 51 -100 62 -24 28
-23 90 1 120 l18 23 49 -18 c204 -76 384 -249 465 -446 45 -110 60 -190 60
-313 -1 -151 -27 -250 -109 -409 -2 -5 797 -8 1775 -7 978 0 1774 2 1768 4
-10 3 -398 112 -715 201 -85 23 -297 81 -470 128 -173 46 -376 101 -450 121
-255 69 -436 116 -990 255 -682 172 -655 164 -656 196 -2 30 -42 133 -61 155
-7 8 -13 21 -13 27 0 20 -163 184 -238 240 -118 87 -277 154 -445 188 -114 23
-352 15 -460 -15 -91 -26 -212 -74 -231 -93 -8 -7 -42 -33 -75 -57 -34 -24
-61 -47 -61 -52 0 -5 -7 -9 -15 -9 -9 0 -12 -6 -9 -15 4 -8 2 -15 -2 -15 -27
0 -158 25 -289 55 -439 100 -1543 327 -1945 400 -234 43 -638 124 -664 134
-19 8 -26 16 -22 27 3 8 -1 17 -9 20 -8 4 -12 10 -9 16 9 14 -169 186 -212
204 -21 9 -49 24 -62 34 -12 10 -40 21 -62 25 -24 4 -41 13 -41 21 -1 8 -2 19
-3 24 0 6 -8 15 -16 21 -11 8 -12 12 -3 15 9 4 7 12 -7 26 -19 21 -19 21 25
60 56 49 112 161 121 240 8 67 -19 168 -64 239 -28 43 -88 98 -141 127 -72 41
-188 53 -269 27z m36 -117 c3 -22 -3 -29 -31 -43 -139 -65 -176 -241 -76 -350
22 -24 53 -48 69 -55 18 -8 33 -23 36 -37 19 -74 -102 -25 -168 67 -36 51 -48
94 -48 174 0 111 56 207 149 256 46 25 65 21 69 -12z m192 12 c48 -25 105 -82
133 -135 29 -54 30 -193 3 -245 -43 -80 -102 -133 -173 -155 -20 -6 -23 -3
-23 24 0 25 7 34 38 50 134 69 160 255 50 362 -22 21 -51 42 -64 45 -19 5 -24
13 -24 40 0 39 7 41 60 14z m-102 -84 c2 -11 19 -34 38 -51 58 -55 33 -101
-27 -51 -17 14 -36 26 -42 26 -22 0 -39 -17 -35 -36 3 -18 22 -27 81 -39 36
-7 67 -39 67 -70 0 -37 -21 -75 -51 -91 -15 -7 -29 -24 -31 -36 -2 -17 -10
-23 -28 -23 -18 0 -26 6 -28 23 -2 13 -16 29 -33 38 -33 17 -55 54 -46 78 10
24 43 19 61 -9 24 -37 96 -33 96 6 0 13 -12 21 -42 30 -80 21 -106 36 -112 67
-9 40 8 78 44 97 16 9 30 24 30 34 0 10 3 21 7 25 13 13 48 1 51 -18z m-3180
-464 c3 -29 -1 -34 -32 -47 -48 -20 -102 -69 -130 -119 -83 -144 -30 -328 116
-402 41 -21 48 -29 48 -54 0 -41 -13 -45 -73 -17 -78 37 -132 89 -169 165 -31
62 -33 74 -33 167 0 85 4 107 25 150 30 62 111 144 170 173 59 28 74 25 78
-16z m248 12 c100 -52 163 -136 190 -250 29 -127 -11 -251 -113 -344 -62 -57
-139 -92 -154 -69 -16 25 -9 48 19 65 110 68 139 103 168 199 37 128 -29 277
-146 330 -42 19 -55 42 -45 75 8 26 22 25 81 -6z m-138 -86 c7 -7 12 -22 12
-34 0 -14 9 -25 28 -33 32 -13 67 -65 58 -87 -9 -24 -62 -17 -80 11 -22 33
-80 35 -96 4 -17 -31 2 -47 73 -60 76 -15 117 -50 117 -101 0 -44 -30 -92 -68
-107 -22 -9 -32 -21 -34 -39 -2 -22 -9 -28 -35 -30 -28 -3 -32 0 -35 24 -2 21
-13 33 -43 48 -39 21 -65 55 -65 89 0 13 8 17 35 17 29 0 37 -5 45 -25 18 -46
104 -46 116 1 9 34 0 40 -75 58 -40 9 -74 24 -89 39 -46 47 -24 137 39 160 19
8 29 18 29 32 0 25 18 45 40 45 9 0 21 -5 28 -12z m2962 -347 l0 -48 -66 -33
c-127 -62 -218 -185 -245 -332 -34 -184 66 -380 241 -472 l70 -37 0 -44 c0
-53 -10 -58 -72 -35 -79 30 -132 66 -196 135 -68 72 -110 147 -137 242 -24 85
-17 244 13 328 28 76 102 186 159 233 58 50 172 112 206 112 26 0 27 -2 27
-49z m387 16 c216 -111 338 -348 303 -585 -27 -179 -144 -340 -303 -416 -97
-47 -112 -45 -112 14 0 43 1 45 59 77 87 49 131 87 175 154 127 190 102 419
-64 582 -27 26 -74 59 -104 74 -31 15 -59 32 -63 38 -10 13 -10 79 -1 88 13
14 50 5 110 -26z m-203 -143 c3 -9 6 -28 6 -44 0 -23 8 -32 48 -51 36 -19 52
-35 71 -72 27 -55 18 -77 -32 -77 -22 0 -40 10 -67 40 -30 32 -44 40 -73 40
-20 0 -48 -5 -62 -12 -54 -25 -36 -100 27 -113 141 -29 169 -38 197 -64 85
-80 51 -223 -64 -267 -41 -15 -45 -20 -45 -50 0 -54 -8 -64 -51 -64 -43 0 -59
18 -59 69 0 25 -5 31 -36 41 -49 17 -100 64 -114 106 -17 51 -8 64 45 64 42 0
46 -2 59 -34 8 -19 23 -39 34 -45 30 -16 114 -13 139 4 26 18 37 59 23 86 -14
24 -35 33 -136 54 -92 19 -137 49 -154 101 -27 82 8 159 90 196 42 19 50 27
50 50 0 48 9 58 55 58 30 0 45 -5 49 -16z m-449 -984 c3 -5 1 -10 -4 -10 -6 0
-11 5 -11 10 0 6 2 10 4 10 3 0 8 -4 11 -10z"/>
<path d="M2945 2950 c-3 -5 -1 -10 4 -10 6 0 11 5 11 10 0 6 -2 10 -4 10 -3 0
-8 -4 -11 -10z"/>
<path d="M2890 2915 c12 -15 30 -12 30 6 0 5 -10 9 -21 9 -18 0 -19 -2 -9 -15z"/>
<path d="M2820 2870 c0 -5 4 -10 9 -10 6 0 13 5 16 10 3 6 -1 10 -9 10 -9 0
-16 -4 -16 -10z"/>
<path d="M2736 2863 c-11 -11 -6 -23 9 -23 8 0 15 4 15 9 0 13 -16 22 -24 14z"/>
<path d="M4074 2835 c-7 -16 12 -45 29 -45 19 0 152 -72 212 -115 119 -85 239
-228 316 -378 15 -29 30 -46 39 -45 39 8 14 81 -72 209 -87 132 -239 267 -386
343 -95 48 -129 56 -138 31z"/>
<path d="M5192 2825 c0 -16 2 -22 5 -12 2 9 2 23 0 30 -3 6 -5 -1 -5 -18z"/>
<path d="M2647 2824 c-9 -10 2 -24 19 -24 8 0 14 7 14 15 0 15 -21 21 -33 9z"/>
<path d="M2575 2790 c-3 -6 5 -10 19 -10 14 0 28 5 31 10 3 6 -5 10 -19 10
-14 0 -28 -4 -31 -10z"/>
<path d="M555 2693 c-3 -49 -8 -100 -11 -114 -3 -15 1 -30 8 -36 15 -12 221
-38 428 -54 139 -11 473 -6 615 10 l60 6 0 50 0 49 -110 18 c-60 10 -222 36
-360 58 -137 22 -330 54 -428 70 -98 17 -182 30 -187 30 -4 0 -11 -39 -15 -87z"/>
<path d="M5212 2755 c0 -16 2 -22 5 -12 2 9 2 23 0 30 -3 6 -5 -1 -5 -18z"/>
<path d="M13433 2736 c-222 -72 -353 -255 -353 -493 0 -90 25 -201 51 -227 17
-18 10 -46 -11 -46 -11 0 -23 -7 -26 -15 -12 -31 149 -159 184 -147 11 3 12 0
3 -16 -18 -34 -13 -42 25 -42 19 0 33 -4 30 -9 -12 -19 24 -29 133 -34 67 -3
117 -10 121 -17 5 -7 11 -6 20 4 7 9 22 14 34 11 11 -2 70 1 131 8 97 11 110
14 114 32 2 11 6 22 10 25 3 3 11 14 17 24 6 11 22 20 37 20 41 2 54 21 26 36
-13 7 -26 14 -28 16 -2 1 17 29 42 61 25 32 52 72 61 89 26 52 56 175 56 229
0 165 -109 357 -252 443 -123 73 -288 92 -425 48z m62 -155 c0 -31 -5 -37 -50
-62 -109 -60 -170 -164 -168 -289 2 -112 66 -215 169 -269 41 -22 49 -31 52
-59 5 -45 -17 -50 -82 -18 -118 58 -194 160 -217 293 -30 169 62 346 216 419
65 31 80 28 80 -15z m273 14 c68 -32 141 -106 178 -180 27 -56 29 -68 29 -175
0 -104 -3 -121 -27 -172 -36 -77 -96 -140 -172 -179 -72 -37 -96 -35 -96 11 0
26 7 33 49 54 68 35 135 113 160 188 25 74 26 104 5 178 -21 77 -77 147 -149
191 -59 35 -75 60 -61 95 7 20 23 18 84 -11z m-140 -120 c2 -23 11 -36 37 -49
34 -19 71 -78 60 -96 -12 -20 -61 -10 -84 16 -18 21 -29 25 -64 22 -39 -3 -42
-5 -45 -35 -3 -29 0 -33 35 -42 21 -6 46 -11 56 -11 32 0 98 -40 107 -66 24
-62 -4 -132 -64 -161 -27 -13 -36 -23 -38 -47 -2 -24 -8 -32 -26 -34 -30 -5
-52 14 -52 44 0 17 -7 25 -24 30 -49 12 -107 99 -83 123 20 20 56 12 74 -16
23 -37 32 -43 71 -43 30 0 72 28 72 48 0 25 -32 44 -94 57 -42 9 -79 23 -93
36 -53 51 -35 143 36 175 32 15 41 24 41 45 0 34 8 41 45 37 25 -3 30 -8 33
-33z"/>
<path d="M2445 2732 c-38 -15 -39 -16 -15 -22 24 -6 70 8 70 22 0 15 -17 15
-55 0z"/>
<path d="M0 2631 c0 -54 4 -91 10 -91 6 0 10 9 10 20 0 25 38 27 47 3 4 -10
18 -26 31 -37 23 -18 27 -56 6 -63 -6 -2 -21 6 -34 17 -26 23 -23 22 -44 14
-31 -12 -17 -34 26 -40 78 -13 105 -79 50 -126 -15 -13 -31 -31 -35 -41 -9
-23 -38 -22 -44 3 -13 49 -23 12 -23 -85 l0 -105 113 6 c61 4 123 10 136 14
30 8 51 57 30 72 -22 15 46 -1 145 -33 49 -16 93 -26 97 -22 4 4 8 76 10 158
l4 150 -97 -4 -97 -3 -7 38 c-16 88 -84 177 -166 220 -18 9 -63 19 -100 22
l-68 5 0 -92z m177 -20 c89 -65 117 -189 66 -292 -41 -80 -144 -144 -151 -93
-2 16 8 28 42 48 29 17 53 41 66 66 23 46 26 119 6 158 -16 31 -61 74 -93 91
-13 6 -23 21 -23 31 0 30 40 25 87 -9z"/>
<path d="M2278 2653 c7 -3 16 -2 19 1 4 3 -2 6 -13 5 -11 0 -14 -3 -6 -6z"/>
<path d="M2408 2653 c6 -2 18 -2 25 0 6 3 1 5 -13 5 -14 0 -19 -2 -12 -5z"/>
<path d="M5226 2645 c-3 -8 -1 -15 4 -15 6 0 10 7 10 15 0 8 -2 15 -4 15 -2 0
-6 -7 -10 -15z"/>
<path d="M2348 2633 c7 -3 16 -2 19 1 4 3 -2 6 -13 5 -11 0 -14 -3 -6 -6z"/>
<path d="M2160 2610 c0 -5 7 -10 15 -10 8 0 15 5 15 10 0 6 -7 10 -15 10 -8 0
-15 -4 -15 -10z"/>
<path d="M2090 2580 c-11 -7 -12 -12 -3 -21 15 -15 47 -7 51 14 4 19 -23 23
-48 7z"/>
<path d="M4128 2554 c-16 -8 -28 -20 -28 -26 0 -6 275 -422 610 -924 336 -502
610 -918 610 -924 0 -7 7 -36 16 -65 13 -46 21 -57 52 -72 30 -15 65 -59 192
-249 86 -127 167 -246 180 -263 l25 -32 333 3 332 3 -528 790 c-1011 1511
-995 1488 -1006 1454 -2 -8 -7 -36 -9 -64 -6 -59 -32 -85 -86 -85 -39 0 -63
19 -110 88 -30 44 -41 40 -41 -13 0 -56 -25 -85 -75 -85 -56 0 -101 47 -127
134 -49 162 -110 255 -207 318 -50 31 -92 35 -133 12z"/>
<path d="M2030 2535 c0 -9 5 -15 11 -13 6 2 11 8 11 13 0 5 -5 11 -11 13 -6 2
-11 -4 -11 -13z"/>
<path d="M1978 2533 c7 -3 16 -2 19 1 4 3 -2 6 -13 5 -11 0 -14 -3 -6 -6z"/>
<path d="M1940 2505 c14 -16 40 -20 40 -6 0 9 -24 21 -42 21 -6 0 -6 -6 2 -15z"/>
<path d="M2005 2480 c-3 -5 1 -10 10 -10 9 0 13 5 10 10 -3 6 -8 10 -10 10 -2
0 -7 -4 -10 -10z"/>
<path d="M1848 2473 c7 -3 16 -2 19 1 4 3 -2 6 -13 5 -11 0 -14 -3 -6 -6z"/>
<path d="M3600 2460 c0 -5 9 -10 20 -10 11 0 20 5 20 10 0 6 -9 10 -20 10 -11
0 -20 -4 -20 -10z"/>
<path d="M5197 2423 c-10 -9 -9 -23 2 -23 5 0 11 7 15 15 5 15 -5 20 -17 8z"/>
<path d="M1690 2410 c0 -5 5 -10 11 -10 5 0 7 5 4 10 -3 6 -8 10 -11 10 -2 0
-4 -4 -4 -10z"/>
<path d="M0 2398 c1 -34 39 -53 67 -33 22 17 11 30 -34 40 -24 5 -33 3 -33 -7z"/>
<path d="M3680 2400 c0 -12 47 -12 75 0 15 6 8 9 -27 9 -27 1 -48 -3 -48 -9z"/>
<path d="M3605 2390 c-3 -5 3 -10 14 -10 11 0 23 5 26 10 3 6 -3 10 -14 10
-11 0 -23 -4 -26 -10z"/>
<path d="M5171 2384 c0 -11 3 -14 6 -6 3 7 2 16 -1 19 -3 4 -6 -2 -5 -13z"/>
<path d="M18115 2374 c-305 -68 -560 -293 -656 -578 -57 -171 -64 -311 -23
-503 l7 -33 -59 -1 c-33 -1 -49 -4 -36 -6 12 -2 22 -8 22 -12 0 -4 14 -23 30
-41 17 -18 30 -41 30 -51 0 -9 7 -22 15 -29 8 -7 15 -19 15 -27 0 -8 14 -34
30 -58 17 -24 30 -46 30 -49 0 -4 30 -42 68 -87 70 -83 161 -150 221 -164 l33
-7 -21 -22 c-35 -37 -27 -53 28 -61 41 -5 50 -11 53 -28 3 -21 11 -23 118 -30
187 -13 624 5 703 29 11 3 17 15 17 34 0 27 3 29 47 32 55 3 65 21 33 55 -11
13 -16 25 -10 28 6 3 10 1 10 -5 0 -10 74 26 168 82 32 19 32 21 16 39 -9 11
-26 19 -36 19 -19 0 -19 1 -1 29 10 16 38 57 62 91 55 79 94 165 123 272 19
69 23 107 22 223 -1 121 -5 152 -28 228 -92 305 -319 533 -616 617 -102 29
-316 36 -415 14z m4 -238 c7 -8 11 -36 9 -63 l-3 -48 -80 -42 c-186 -99 -295
-278 -295 -486 0 -210 110 -387 301 -487 l80 -42 -3 -51 c-3 -49 -5 -52 -31
-55 -17 -2 -60 12 -114 38 -148 72 -272 215 -329 380 -117 336 54 711 384 845
70 28 67 28 81 11z m504 -48 c40 -20 93 -63 147 -118 136 -136 200 -289 200
-478 -1 -275 -165 -516 -423 -622 -66 -27 -90 -21 -95 25 -7 57 4 72 84 110
296 143 395 530 205 805 -46 67 -135 141 -217 180 -34 16 -64 36 -68 45 -11
30 -6 78 10 96 14 16 20 16 56 3 22 -7 67 -28 101 -46z m-276 -149 c7 -7 13
-31 13 -59 0 -46 1 -47 39 -58 43 -13 107 -77 117 -116 12 -49 3 -61 -52 -64
-50 -3 -52 -2 -73 33 -38 66 -125 81 -186 34 -21 -17 -25 -28 -23 -57 4 -50
37 -70 142 -87 141 -23 207 -74 222 -171 13 -88 -51 -187 -140 -217 -40 -13
-41 -15 -44 -63 -3 -56 -20 -74 -68 -74 -46 0 -64 22 -64 81 0 43 -3 49 -20
49 -47 0 -128 57 -153 108 -37 72 -25 112 34 112 43 0 66 -15 78 -53 15 -45
56 -67 124 -67 74 0 117 33 117 89 0 59 -24 73 -153 96 -129 23 -185 63 -207
146 -26 96 35 194 143 229 36 11 37 13 37 61 0 42 3 51 23 59 25 11 74 5 94
-11z"/>
<path d="M3291 2354 c0 -11 3 -14 6 -6 3 7 2 16 -1 19 -3 4 -6 -2 -5 -13z"/>
<path d="M3430 2243 c1 -411 51 -1200 115 -1813 30 -282 35 -319 45 -325 19
-12 27 23 20 85 -71 578 -140 1578 -140 2028 0 125 -1 132 -20 132 -19 0 -20
-7 -20 -107z"/>
<path d="M3260 2310 c0 -5 5 -10 11 -10 5 0 7 5 4 10 -3 6 -8 10 -11 10 -2 0
-4 -4 -4 -10z"/>
<path d="M3200 2275 c-10 -12 -10 -15 3 -15 8 0 20 7 27 15 10 12 10 15 -3 15
-8 0 -20 -7 -27 -15z"/>
<path d="M3134 2257 c4 -16 1 -27 -7 -30 -6 -2 -8 -8 -4 -13 4 -4 16 1 26 12
18 18 18 20 -2 38 -20 19 -20 19 -13 -7z"/>
<path d="M5057 2263 c-4 -3 -7 -12 -7 -20 0 -11 5 -11 20 -3 11 6 20 15 20 20
0 11 -23 13 -33 3z"/>
<path d="M3060 2219 c-15 -27 -10 -31 13 -9 11 11 14 20 8 24 -5 4 -15 -3 -21
-15z"/>
<path d="M3541 2183 c-11 -10 -24 -32 -27 -50 -13 -67 77 -110 124 -60 29 31
28 72 -3 102 -28 29 -64 32 -94 8z"/>
<path d="M2968 2133 c-16 -2 -28 -11 -28 -19 0 -20 24 -17 45 6 10 11 16 19
14 19 -2 -1 -16 -4 -31 -6z"/>
<path d="M11798 2103 c7 -3 16 -2 19 1 4 3 -2 6 -13 5 -11 0 -14 -3 -6 -6z"/>
<path d="M2898 2083 c7 -3 16 -2 19 1 4 3 -2 6 -13 5 -11 0 -14 -3 -6 -6z"/>
<path d="M2808 2013 c7 -3 16 -2 19 1 4 3 -2 6 -13 5 -11 0 -14 -3 -6 -6z"/>
<path d="M2730 1970 c0 -5 4 -10 9 -10 6 0 13 5 16 10 3 6 -1 10 -9 10 -9 0
-16 -4 -16 -10z"/>
<path d="M0 1507 l0 -464 118 -73 c122 -77 342 -220 342 -223 0 -1 -28 -3 -62
-5 -34 -1 -68 -8 -76 -14 -8 -7 -23 -13 -34 -15 -71 -11 -195 -106 -259 -200
l-29 -42 0 -235 0 -236 65 0 65 0 -11 28 c-20 49 -15 180 10 254 41 123 150
239 267 284 52 20 64 12 64 -38 0 -23 -8 -32 -52 -54 -120 -60 -190 -153 -206
-273 -8 -56 0 -170 14 -192 3 -5 43 -9 90 -9 l84 0 0 30 c0 28 2 30 39 30 34
0 42 -4 53 -27 13 -27 17 -28 83 -28 l70 0 3 36 c3 31 -1 38 -25 48 -15 6 -52
15 -81 21 -70 13 -108 36 -128 78 -30 64 11 153 79 170 28 7 32 13 35 46 3 37
3 37 45 34 40 -3 42 -5 45 -39 3 -30 8 -37 35 -45 36 -10 79 -67 75 -99 -2
-14 -12 -21 -32 -23 -22 -3 -35 4 -61 32 -36 40 -75 47 -113 20 -24 -17 -29
-56 -9 -73 8 -6 46 -17 86 -26 118 -25 141 -47 141 -132 l0 -53 89 0 88 0 13
45 c8 27 11 75 8 120 -9 132 -81 243 -199 303 -45 24 -54 33 -57 58 -1 16 2
35 7 43 23 35 188 -67 254 -157 44 -60 65 -106 82 -187 13 -58 13 -53 14 121
1 99 -2 316 -6 482 l-6 301 -83 0 c-106 0 -167 25 -228 92 -80 88 -143 282
-162 491 -4 43 -12 82 -18 87 -9 7 -406 138 -503 166 l-23 6 0 -464z"/>
<path d="M2688 1943 c7 -3 16 -2 19 1 4 3 -2 6 -13 5 -11 0 -14 -3 -6 -6z"/>
<path d="M2625 1920 c-3 -5 -4 -10 -1 -10 2 0 11 -3 20 -6 11 -4 16 -1 16 10
0 18 -25 22 -35 6z"/>
<path d="M2540 1860 c0 -5 5 -10 10 -10 6 0 10 5 10 10 0 6 -4 10 -10 10 -5 0
-10 -4 -10 -10z"/>
<path d="M2505 1838 c-4 -10 -13 -18 -21 -18 -8 0 -14 -4 -14 -10 0 -14 11
-12 34 5 10 7 16 20 13 27 -3 9 -7 8 -12 -4z"/>
<path d="M2420 1830 c0 -5 6 -10 14 -10 8 0 18 5 21 10 3 6 -3 10 -14 10 -12
0 -21 -4 -21 -10z"/>
<path d="M2370 1750 c0 -5 6 -10 14 -10 8 0 18 5 21 10 3 6 -3 10 -14 10 -12
0 -21 -4 -21 -10z"/>
<path d="M2345 1730 c-3 -5 -1 -10 4 -10 6 0 11 5 11 10 0 6 -2 10 -4 10 -3 0
-8 -4 -11 -10z"/>
<path d="M2207 1663 c-13 -13 -7 -21 13 -16 11 3 17 9 14 14 -6 11 -18 12 -27
2z"/>
<path d="M2068 1633 c7 -3 16 -2 19 1 4 3 -2 6 -13 5 -11 0 -14 -3 -6 -6z"/>
<path d="M2100 1602 c0 -15 5 -19 20 -15 24 6 21 26 -3 31 -11 2 -17 -3 -17
-16z"/>
<path d="M2045 1570 c3 -5 12 -10 20 -10 8 0 17 5 20 10 4 6 -5 10 -20 10 -15
0 -24 -4 -20 -10z"/>
<path d="M1886 1489 c-11 -10 -30 -19 -43 -19 -13 0 -23 -4 -23 -10 0 -5 11
-10 25 -10 14 0 25 4 25 8 0 5 18 15 40 22 22 7 40 17 40 22 0 15 -45 7 -64
-13z"/>
<path d="M1721 1416 c-18 -22 3 -28 38 -10 17 8 31 17 31 20 0 11 -59 2 -69
-10z"/>
<path d="M1460 1340 c0 -5 9 -10 20 -10 11 0 20 5 20 10 0 6 -9 10 -20 10 -11
0 -20 -4 -20 -10z"/>
<path d="M1580 1340 c-8 -5 -27 -11 -42 -15 -30 -6 -39 -25 -12 -25 17 0 104
38 104 45 0 8 -34 4 -50 -5z"/>
<path d="M1440 1280 c20 -13 40 -13 40 0 0 6 -12 10 -27 10 -22 0 -25 -2 -13
-10z"/>
<path d="M1400 1260 c0 -5 7 -10 15 -10 8 0 15 5 15 10 0 6 -7 10 -15 10 -8 0
-15 -4 -15 -10z"/>
<path d="M1258 1203 c6 -2 18 -2 25 0 6 3 1 5 -13 5 -14 0 -19 -2 -12 -5z"/>
<path d="M1203 1183 c9 -2 23 -2 30 0 6 3 -1 5 -18 5 -16 0 -22 -2 -12 -5z"/>
<path d="M22855 1179 c-104 -10 -160 -23 -254 -59 -273 -105 -478 -331 -567
-625 -25 -82 -27 -105 -28 -265 l-1 -175 -38 -5 c-37 -5 -37 -5 -22 -27 16
-22 22 -23 164 -23 l148 0 -14 52 c-50 185 -12 406 97 574 87 132 290 282 390
287 l35 2 0 -60 0 -60 -65 -34 c-109 -56 -186 -124 -245 -216 -93 -147 -118
-315 -70 -482 l18 -63 144 0 c142 0 144 0 133 20 -6 12 -10 33 -8 48 3 26 6
27 64 30 61 3 62 3 73 -29 22 -63 34 -69 137 -69 88 0 94 1 109 24 10 15 15
40 13 62 -4 51 -45 79 -141 94 -175 27 -247 87 -247 205 0 84 63 166 149 195
37 12 39 15 44 63 5 57 24 77 72 77 49 0 69 -21 75 -81 5 -48 8 -53 35 -62 72
-23 140 -107 133 -165 -3 -23 -8 -27 -42 -30 -59 -5 -82 4 -96 38 -16 40 -57
60 -118 60 -79 0 -126 -52 -102 -114 13 -35 51 -52 158 -70 144 -25 199 -62
223 -150 11 -40 8 -93 -6 -128 -7 -17 4 -18 138 -18 l145 0 11 28 c31 79 41
224 20 324 -6 29 -29 91 -51 137 -51 108 -144 203 -249 255 -97 49 -99 51 -99
106 0 84 33 86 170 13 235 -126 380 -370 380 -636 0 -68 -12 -166 -25 -208 -6
-18 0 -19 108 -19 l115 0 11 68 c20 132 22 168 11 262 -19 166 -75 321 -161
447 -47 68 -150 174 -219 224 -130 95 -311 165 -448 175 -42 3 -88 6 -102 8
-14 1 -61 -1 -105 -5z"/>
<path d="M6616 1131 c-4 -5 14 -53 38 -108 24 -54 92 -208 151 -343 157 -356
289 -653 298 -667 6 -10 58 -13 202 -13 l194 0 15 57 c43 157 154 312 279 391
62 38 156 82 177 82 16 0 32 -51 26 -85 -5 -25 -18 -36 -80 -68 -128 -66 -229
-187 -270 -324 l-15 -53 140 0 139 0 0 43 c1 86 50 151 136 179 37 12 39 15
44 63 l5 50 43 3 c56 4 72 -10 72 -63 0 -41 1 -43 45 -59 24 -10 58 -33 74
-51 35 -40 51 -102 30 -116 -24 -15 -87 -10 -101 7 -52 65 -66 74 -116 74 -64
0 -102 -27 -102 -74 0 -17 5 -37 12 -44 9 -9 92 -12 311 -12 l300 0 -6 35
c-19 117 -152 282 -272 339 -33 15 -66 35 -72 44 -24 29 -10 112 18 112 29 0
170 -77 230 -125 109 -88 206 -244 225 -363 l7 -42 981 1 981 0 -165 50 c-266
81 -880 258 -1455 419 -203 57 -295 84 -432 127 -29 9 -53 20 -53 25 0 4 -7 8
-15 8 -8 0 -15 5 -15 10 0 6 -7 10 -15 10 -8 0 -15 5 -15 11 0 15 -155 86
-230 105 -65 16 -186 21 -252 9 -36 -7 -195 24 -318 60 -41 13 -448 118 -885
230 -99 25 -202 53 -229 61 -59 17 -53 16 -60 5z"/>
<path d="M3600 950 c-30 -30 -27 -83 6 -109 15 -12 37 -21 49 -21 57 0 90 102
43 134 -31 22 -74 20 -98 -4z"/>
<path d="M1017 56 c-7 -47 -4 -66 9 -54 3 3 4 28 2 54 l-3 49 -8 -49z"/>
<path d="M3596 49 c-9 -47 -8 -49 19 -49 28 0 29 4 14 49 -14 39 -25 40 -33 0z"/>
</g>
</svg>
